<svg width="253" height="539" viewBox="0 0 253 539" fill="none" xmlns="http://www.w3.org/2000/svg">
<path d="M132.726 531.455L159.838 229.634C159.969 228.187 159.984 226.672 159.881 225.207C159.777 223.741 159.559 222.364 159.242 221.18C158.925 219.996 158.518 219.038 158.053 218.379C157.588 217.72 157.077 217.377 156.558 217.378H102.334C101.817 217.382 101.306 217.727 100.841 218.387C100.377 219.048 99.9709 220.006 99.6544 221.188C99.338 222.371 99.1193 223.747 99.0154 225.21C98.9114 226.674 98.9248 228.187 99.0545 229.634L126.166 531.455C126.355 533.55 126.78 535.406 127.373 536.73C127.967 538.055 128.696 538.773 129.446 538.773C130.197 538.773 130.926 538.055 131.519 536.73C132.113 535.406 132.537 533.55 132.726 531.455Z" fill="url(#paint0_linear_2_860)"/>
<path d="M126.477 1.52588e-05C56.6254 1.52588e-05 0 56.6255 0 126.477C0 196.328 56.6254 252.953 126.477 252.953C196.328 252.953 252.953 196.328 252.953 126.477C252.953 56.6255 196.328 1.52588e-05 126.477 1.52588e-05Z" fill="url(#paint1_linear_2_860)"/>
<path d="M126.477 10.3931C62.3657 10.3931 10.3932 62.3657 10.3932 126.477C10.3932 190.589 62.3657 242.561 126.477 242.561C190.589 242.561 242.561 190.589 242.561 126.477C242.561 62.3657 190.589 10.3931 126.477 10.3931Z" fill="url(#paint2_linear_2_860)"/>
<defs>
<linearGradient id="paint0_linear_2_860" x1="129.447" y1="217.378" x2="129.447" y2="538.773" gradientUnits="userSpaceOnUse">
<stop stop-color="#928F93"/>
<stop offset="1" stop-color="#F6F2F9"/>
</linearGradient>
<linearGradient id="paint1_linear_2_860" x1="215.908" y1="215.898" x2="37.0325" y2="37.0228" gradientUnits="userSpaceOnUse">
<stop stop-color="white"/>
<stop offset="1" stop-color="#999999"/>
</linearGradient>
<linearGradient id="paint2_linear_2_860" x1="208.56" y1="208.55" x2="44.3818" y2="44.372" gradientUnits="userSpaceOnUse">
<stop stop-color="#F2F2F2"/>
<stop offset="1" stop-color="#B3B3B3"/>
</linearGradient>
</defs>
</svg>
