<svg width="2825" height="2972" viewBox="0 0 2825 2972" fill="none" xmlns="http://www.w3.org/2000/svg">
<path style="mix-blend-mode:multiply" opacity="0.75" d="M1427.17 2579.95C2032.02 2579.95 2522.35 2085.09 2522.35 1474.65C2522.35 864.21 2032.02 369.349 1427.17 369.349C822.309 369.349 331.977 864.21 331.977 1474.65C331.977 2085.09 822.309 2579.95 1427.17 2579.95Z" fill="url(#paint0_radial_2_837)"/>
<g filter="url(#filter0_d_2_837)">
<path d="M1427.16 287.106C2077.02 287.106 2603.84 818.794 2603.84 1474.65C2603.84 2130.51 2077.02 2662.2 1427.16 2662.2C777.307 2662.2 250.484 2130.51 250.484 1474.65C250.484 818.794 777.307 287.106 1427.16 287.106ZM1427.16 209.002C1342.3 208.986 1257.65 217.6 1174.5 234.714C1014.04 267.918 861.628 332.673 725.951 425.289C524.372 562.613 366.579 755.989 271.688 981.985C239.605 1058.58 215.113 1138.19 198.571 1219.66C164.602 1387.93 164.602 1561.38 198.571 1729.65C231.471 1891.59 295.634 2045.41 387.402 2182.34C523.491 2385.79 715.125 2545.04 939.082 2640.8C1014.98 2673.18 1093.86 2697.9 1174.58 2714.59C1341.31 2748.87 1513.17 2748.87 1679.9 2714.59C1840.36 2681.39 1992.78 2616.63 2128.45 2524.02C2330.04 2386.67 2487.84 2193.27 2582.72 1967.24C2614.8 1890.65 2639.29 1811.03 2655.83 1729.57C2689.8 1561.3 2689.8 1387.85 2655.83 1219.58C2622.93 1057.64 2558.77 903.816 2467 766.886C2330.91 563.434 2139.28 404.183 1915.32 308.429C1839.43 276.049 1760.55 251.331 1679.83 234.636C1596.67 217.548 1512.02 208.96 1427.16 209.002Z" fill="white"/>
</g>
<path d="M1427.16 2707.5C1125.23 2707.09 834.2 2593.52 610.539 2388.81C386.878 2184.11 246.527 1902.85 216.712 1599.62C186.897 1296.38 269.743 992.774 449.179 747.697C628.616 502.619 891.852 333.539 1187.82 273.255C1483.79 212.972 1791.4 265.783 2050.97 421.443C2310.54 577.104 2503.58 824.518 2592.63 1115.69C2681.67 1406.86 2660.39 1721.04 2532.9 1997.27C2405.42 2273.5 2180.81 2492.09 1902.66 2610.65C1752.23 2674.89 1590.51 2707.83 1427.16 2707.5V2707.5ZM1427.16 369.35C823.277 369.35 331.976 865.188 331.976 1474.65C331.976 2084.12 823.277 2579.95 1427.16 2579.95C2031.05 2579.95 2522.35 2084.12 2522.35 1474.65C2522.35 865.188 2031.05 369.35 1427.16 369.35V369.35Z" fill="#F0D43D"/>
<path style="mix-blend-mode:screen" d="M1501.43 317.361C1510.04 275.911 1483.73 235.266 1442.66 226.576C1401.59 217.886 1361.31 244.444 1352.7 285.894C1344.09 327.343 1370.41 367.989 1411.48 376.679C1452.55 385.368 1492.82 358.811 1501.43 317.361Z" fill="url(#paint1_radial_2_837)"/>
<path d="M1427.16 352.794C1451.14 352.794 1470.58 331.659 1470.58 305.588C1470.58 279.516 1451.14 258.381 1427.16 258.381C1403.18 258.381 1383.75 279.516 1383.75 305.588C1383.75 331.659 1403.18 352.794 1427.16 352.794Z" fill="#333333"/>
<path d="M1427.16 346.014C1451.14 346.014 1470.58 326.397 1470.58 302.198C1470.58 277.999 1451.14 258.381 1427.16 258.381C1403.18 258.381 1383.75 277.999 1383.75 302.198C1383.75 326.397 1403.18 346.014 1427.16 346.014Z" fill="white"/>
<path d="M1427.16 337.671C1444.15 337.671 1457.92 322.781 1457.92 304.414C1457.92 286.047 1444.15 271.157 1427.16 271.157C1410.18 271.157 1396.41 286.047 1396.41 304.414C1396.41 322.781 1410.18 337.671 1427.16 337.671Z" fill="#333333"/>
<path d="M1427.16 333.235C1444.15 333.235 1457.92 319.338 1457.92 302.196C1457.92 285.054 1444.15 271.157 1427.16 271.157C1410.18 271.157 1396.41 285.054 1396.41 302.196C1396.41 319.338 1410.18 333.235 1427.16 333.235Z" fill="#F0EA8F"/>
<path d="M1444.4 301.463C1446.41 291.884 1440.35 282.471 1430.86 280.439C1421.37 278.406 1412.04 284.524 1410.03 294.102C1408.01 303.681 1414.07 313.093 1423.56 315.126C1433.06 317.158 1442.38 311.041 1444.4 301.463Z" fill="white"/>
<path style="mix-blend-mode:screen" d="M2007.76 535.37C2049.72 535.37 2083.74 501.037 2083.74 458.687C2083.74 416.336 2049.72 382.004 2007.76 382.004C1965.79 382.004 1931.78 416.336 1931.78 458.687C1931.78 501.037 1965.79 535.37 2007.76 535.37Z" fill="url(#paint2_radial_2_837)"/>
<path d="M2007.76 509.798C2031.74 509.798 2051.18 488.663 2051.18 462.592C2051.18 436.52 2031.74 415.385 2007.76 415.385C1983.78 415.385 1964.35 436.52 1964.35 462.592C1964.35 488.663 1983.78 509.798 2007.76 509.798Z" fill="#333333"/>
<path d="M2007.76 503.019C2031.74 503.019 2051.18 483.401 2051.18 459.202C2051.18 435.003 2031.74 415.385 2007.76 415.385C1983.78 415.385 1964.35 435.003 1964.35 459.202C1964.35 483.401 1983.78 503.019 2007.76 503.019Z" fill="white"/>
<path d="M2007.76 494.677C2024.74 494.677 2038.51 479.788 2038.51 461.42C2038.51 443.053 2024.74 428.164 2007.76 428.164C1990.77 428.164 1977 443.053 1977 461.42C1977 479.788 1990.77 494.677 2007.76 494.677Z" fill="#333333"/>
<path d="M2007.76 490.241C2024.74 490.241 2038.51 476.344 2038.51 459.202C2038.51 442.06 2024.74 428.164 2007.76 428.164C1990.77 428.164 1977 442.06 1977 459.202C1977 476.344 1990.77 490.241 2007.76 490.241Z" fill="#F0EA8F"/>
<path d="M2020.17 467.313C2027.04 460.389 2027.04 449.163 2020.17 442.24C2013.31 435.316 2002.19 435.316 1995.33 442.239C1988.47 449.163 1988.47 460.389 1995.33 467.313C2002.19 474.237 2013.31 474.237 2020.17 467.313Z" fill="white"/>
<path style="mix-blend-mode:screen" d="M2432.8 964.317C2474.76 964.317 2508.78 929.985 2508.78 887.634C2508.78 845.283 2474.76 810.951 2432.8 810.951C2390.83 810.951 2356.81 845.283 2356.81 887.634C2356.81 929.985 2390.83 964.317 2432.8 964.317Z" fill="url(#paint3_radial_2_837)"/>
<path d="M2432.8 938.76C2456.78 938.76 2476.21 917.625 2476.21 891.554C2476.21 865.483 2456.78 844.348 2432.8 844.348C2408.82 844.348 2389.38 865.483 2389.38 891.554C2389.38 917.625 2408.82 938.76 2432.8 938.76Z" fill="#333333"/>
<path d="M2432.8 931.966C2456.78 931.966 2476.21 912.349 2476.21 888.15C2476.21 863.95 2456.78 844.333 2432.8 844.333C2408.82 844.333 2389.38 863.95 2389.38 888.15C2389.38 912.349 2408.82 931.966 2432.8 931.966Z" fill="white"/>
<path d="M2432.79 923.625C2449.78 923.625 2463.55 908.735 2463.55 890.368C2463.55 872.001 2449.78 857.111 2432.79 857.111C2415.81 857.111 2402.04 872.001 2402.04 890.368C2402.04 908.735 2415.81 923.625 2432.79 923.625Z" fill="#333333"/>
<path d="M2432.79 919.188C2449.78 919.188 2463.55 905.292 2463.55 888.15C2463.55 871.008 2449.78 857.111 2432.79 857.111C2415.81 857.111 2402.04 871.008 2402.04 888.15C2402.04 905.292 2415.81 919.188 2432.79 919.188Z" fill="#F0EA8F"/>
<path d="M2445.22 896.261C2452.08 889.337 2452.08 878.111 2445.22 871.187C2438.36 864.263 2427.24 864.263 2420.38 871.187C2413.52 878.111 2413.52 889.337 2420.38 896.261C2427.24 903.185 2438.36 903.185 2445.22 896.261Z" fill="white"/>
<path style="mix-blend-mode:screen" d="M2588.37 1550.29C2630.33 1550.29 2664.35 1515.96 2664.35 1473.61C2664.35 1431.26 2630.33 1396.92 2588.37 1396.92C2546.41 1396.92 2512.39 1431.26 2512.39 1473.61C2512.39 1515.96 2546.41 1550.29 2588.37 1550.29Z" fill="url(#paint4_radial_2_837)"/>
<path d="M2588.37 1524.72C2612.34 1524.72 2631.78 1503.58 2631.78 1477.51C2631.78 1451.44 2612.34 1430.31 2588.37 1430.31C2564.39 1430.31 2544.95 1451.44 2544.95 1477.51C2544.95 1503.58 2564.39 1524.72 2588.37 1524.72Z" fill="#333333"/>
<path d="M2619.06 1505.1C2636.02 1487.99 2636.02 1460.25 2619.06 1443.14C2602.11 1426.02 2574.62 1426.02 2557.67 1443.14C2540.71 1460.25 2540.71 1487.99 2557.67 1505.1C2574.62 1522.21 2602.11 1522.21 2619.06 1505.1Z" fill="white"/>
<path d="M2588.37 1509.6C2605.35 1509.6 2619.12 1494.71 2619.12 1476.34C2619.12 1457.97 2605.35 1443.08 2588.37 1443.08C2571.38 1443.08 2557.61 1457.97 2557.61 1476.34C2557.61 1494.71 2571.38 1509.6 2588.37 1509.6Z" fill="#333333"/>
<path d="M2610.11 1496.07C2622.12 1483.94 2622.12 1464.29 2610.11 1452.17C2598.1 1440.05 2578.62 1440.05 2566.61 1452.17C2554.6 1464.29 2554.6 1483.94 2566.61 1496.07C2578.62 1508.19 2598.1 1508.19 2610.11 1496.07Z" fill="#F0EA8F"/>
<path d="M2588.37 1487.42C2598.07 1487.42 2605.94 1479.48 2605.94 1469.69C2605.94 1459.89 2598.07 1451.96 2588.37 1451.96C2578.67 1451.96 2570.8 1459.89 2570.8 1469.69C2570.8 1479.48 2578.67 1487.42 2588.37 1487.42Z" fill="white"/>
<path style="mix-blend-mode:screen" d="M2432.8 2136.24C2474.76 2136.24 2508.78 2101.91 2508.78 2059.56C2508.78 2017.21 2474.76 1982.88 2432.8 1982.88C2390.83 1982.88 2356.81 2017.21 2356.81 2059.56C2356.81 2101.91 2390.83 2136.24 2432.8 2136.24Z" fill="url(#paint5_radial_2_837)"/>
<path d="M2432.8 2110.67C2456.78 2110.67 2476.21 2089.54 2476.21 2063.47C2476.21 2037.39 2456.78 2016.26 2432.8 2016.26C2408.82 2016.26 2389.38 2037.39 2389.38 2063.47C2389.38 2089.54 2408.82 2110.67 2432.8 2110.67Z" fill="#333333"/>
<path d="M2432.8 2103.89C2456.78 2103.89 2476.21 2084.28 2476.21 2060.08C2476.21 2035.88 2456.78 2016.26 2432.8 2016.26C2408.82 2016.26 2389.38 2035.88 2389.38 2060.08C2389.38 2084.28 2408.82 2103.89 2432.8 2103.89Z" fill="white"/>
<path d="M2432.79 2095.55C2449.78 2095.55 2463.55 2080.66 2463.55 2062.29C2463.55 2043.93 2449.78 2029.04 2432.79 2029.04C2415.81 2029.04 2402.04 2043.93 2402.04 2062.29C2402.04 2080.66 2415.81 2095.55 2432.79 2095.55Z" fill="#333333"/>
<path d="M2432.79 2091.11C2449.78 2091.11 2463.55 2077.22 2463.55 2060.08C2463.55 2042.93 2449.78 2029.04 2432.79 2029.04C2415.81 2029.04 2402.04 2042.93 2402.04 2060.08C2402.04 2077.22 2415.81 2091.11 2432.79 2091.11Z" fill="#F0EA8F"/>
<path d="M2432.8 2073.37C2442.5 2073.37 2450.36 2065.43 2450.36 2055.64C2450.36 2045.85 2442.5 2037.91 2432.8 2037.91C2423.1 2037.91 2415.23 2045.85 2415.23 2055.64C2415.23 2065.43 2423.1 2073.37 2432.8 2073.37Z" fill="white"/>
<path style="mix-blend-mode:screen" d="M2007.76 2565.19C2049.72 2565.19 2083.74 2530.86 2083.74 2488.51C2083.74 2446.16 2049.72 2411.83 2007.76 2411.83C1965.79 2411.83 1931.78 2446.16 1931.78 2488.51C1931.78 2530.86 1965.79 2565.19 2007.76 2565.19Z" fill="url(#paint6_radial_2_837)"/>
<path d="M2007.76 2539.63C2031.74 2539.63 2051.18 2518.5 2051.18 2492.43C2051.18 2466.36 2031.74 2445.22 2007.76 2445.22C1983.78 2445.22 1964.35 2466.36 1964.35 2492.43C1964.35 2518.5 1983.78 2539.63 2007.76 2539.63Z" fill="#333333"/>
<path d="M2007.76 2532.86C2031.74 2532.86 2051.18 2513.24 2051.18 2489.04C2051.18 2464.84 2031.74 2445.22 2007.76 2445.22C1983.78 2445.22 1964.35 2464.84 1964.35 2489.04C1964.35 2513.24 1983.78 2532.86 2007.76 2532.86Z" fill="white"/>
<path d="M2007.76 2524.5C2024.74 2524.5 2038.51 2509.61 2038.51 2491.24C2038.51 2472.87 2024.74 2457.99 2007.76 2457.99C1990.77 2457.99 1977 2472.87 1977 2491.24C1977 2509.61 1990.77 2524.5 2007.76 2524.5Z" fill="#333333"/>
<path d="M2007.76 2520.08C2024.74 2520.08 2038.51 2506.18 2038.51 2489.04C2038.51 2471.9 2024.74 2458 2007.76 2458C1990.77 2458 1977 2471.9 1977 2489.04C1977 2506.18 1990.77 2520.08 2007.76 2520.08Z" fill="#F0EA8F"/>
<path d="M2007.76 2502.33C2017.46 2502.33 2025.33 2494.4 2025.33 2484.6C2025.33 2474.81 2017.46 2466.87 2007.76 2466.87C1998.06 2466.87 1990.19 2474.81 1990.19 2484.6C1990.19 2494.4 1998.06 2502.33 2007.76 2502.33Z" fill="white"/>
<path style="mix-blend-mode:screen" d="M1480.88 2699.74C1510.56 2669.79 1510.56 2621.24 1480.88 2591.3C1451.21 2561.35 1403.1 2561.35 1373.43 2591.3C1343.76 2621.24 1343.76 2669.79 1373.43 2699.74C1403.1 2729.69 1451.21 2729.69 1480.88 2699.74Z" fill="url(#paint7_radial_2_837)"/>
<path d="M1427.16 2696.64C1451.14 2696.64 1470.58 2675.51 1470.58 2649.44C1470.58 2623.36 1451.14 2602.23 1427.16 2602.23C1403.19 2602.23 1383.75 2623.36 1383.75 2649.44C1383.75 2675.51 1403.19 2696.64 1427.16 2696.64Z" fill="#333333"/>
<path d="M1427.16 2689.86C1451.14 2689.86 1470.58 2670.24 1470.58 2646.05C1470.58 2621.85 1451.14 2602.23 1427.16 2602.23C1403.19 2602.23 1383.75 2621.85 1383.75 2646.05C1383.75 2670.24 1403.19 2689.86 1427.16 2689.86Z" fill="white"/>
<path d="M1427.17 2681.52C1444.15 2681.52 1457.92 2666.63 1457.92 2648.26C1457.92 2629.9 1444.15 2615.01 1427.17 2615.01C1410.18 2615.01 1396.41 2629.9 1396.41 2648.26C1396.41 2666.63 1410.18 2681.52 1427.17 2681.52Z" fill="#333333"/>
<path d="M1427.17 2677.08C1444.15 2677.08 1457.92 2663.19 1457.92 2646.05C1457.92 2628.9 1444.15 2615.01 1427.17 2615.01C1410.18 2615.01 1396.41 2628.9 1396.41 2646.05C1396.41 2663.19 1410.18 2677.08 1427.17 2677.08Z" fill="#F0EA8F"/>
<path d="M1444.4 2645.41C1446.41 2635.83 1440.35 2626.42 1430.86 2624.38C1421.37 2622.35 1412.04 2628.47 1410.03 2638.05C1408.01 2647.63 1414.08 2657.04 1423.57 2659.07C1433.06 2661.1 1442.38 2654.99 1444.4 2645.41Z" fill="white"/>
<path style="mix-blend-mode:screen" d="M846.573 2565.19C888.536 2565.19 922.554 2530.86 922.554 2488.51C922.554 2446.16 888.536 2411.82 846.573 2411.82C804.609 2411.82 770.591 2446.16 770.591 2488.51C770.591 2530.86 804.609 2565.19 846.573 2565.19Z" fill="url(#paint8_radial_2_837)"/>
<path d="M846.567 2539.63C870.545 2539.63 889.983 2518.5 889.983 2492.43C889.983 2466.35 870.545 2445.22 846.567 2445.22C822.59 2445.22 803.152 2466.35 803.152 2492.43C803.152 2518.5 822.59 2539.63 846.567 2539.63Z" fill="#333333"/>
<path d="M846.567 2532.85C870.545 2532.85 889.983 2513.24 889.983 2489.04C889.983 2464.84 870.545 2445.22 846.567 2445.22C822.59 2445.22 803.152 2464.84 803.152 2489.04C803.152 2513.24 822.59 2532.85 846.567 2532.85Z" fill="white"/>
<path d="M846.57 2524.5C863.555 2524.5 877.324 2509.61 877.324 2491.24C877.324 2472.87 863.555 2457.98 846.57 2457.98C829.584 2457.98 815.815 2472.87 815.815 2491.24C815.815 2509.61 829.584 2524.5 846.57 2524.5Z" fill="#333333"/>
<path d="M846.57 2520.08C863.555 2520.08 877.324 2506.18 877.324 2489.04C877.324 2471.89 863.555 2458 846.57 2458C829.584 2458 815.815 2471.89 815.815 2489.04C815.815 2506.18 829.584 2520.08 846.57 2520.08Z" fill="#F0EA8F"/>
<path d="M846.574 2502.33C856.277 2502.33 864.142 2494.39 864.142 2484.6C864.142 2474.81 856.277 2466.87 846.574 2466.87C836.872 2466.87 829.007 2474.81 829.007 2484.6C829.007 2494.39 836.872 2502.33 846.574 2502.33Z" fill="white"/>
<path style="mix-blend-mode:screen" d="M421.534 2136.24C463.497 2136.24 497.515 2101.91 497.515 2059.56C497.515 2017.21 463.497 1982.88 421.534 1982.88C379.57 1982.88 345.552 2017.21 345.552 2059.56C345.552 2101.91 379.57 2136.24 421.534 2136.24Z" fill="url(#paint9_radial_2_837)"/>
<path d="M421.529 2110.67C445.506 2110.67 464.944 2089.54 464.944 2063.47C464.944 2037.39 445.506 2016.26 421.529 2016.26C397.551 2016.26 378.113 2037.39 378.113 2063.47C378.113 2089.54 397.551 2110.67 421.529 2110.67Z" fill="#333333"/>
<path d="M421.529 2103.89C445.506 2103.89 464.944 2084.28 464.944 2060.08C464.944 2035.88 445.506 2016.26 421.529 2016.26C397.551 2016.26 378.113 2035.88 378.113 2060.08C378.113 2084.28 397.551 2103.89 421.529 2103.89Z" fill="white"/>
<path d="M421.531 2095.55C438.516 2095.55 452.285 2080.66 452.285 2062.29C452.285 2043.93 438.516 2029.04 421.531 2029.04C404.545 2029.04 390.776 2043.93 390.776 2062.29C390.776 2080.66 404.545 2095.55 421.531 2095.55Z" fill="#333333"/>
<path d="M421.531 2091.11C438.516 2091.11 452.285 2077.22 452.285 2060.08C452.285 2042.93 438.516 2029.04 421.531 2029.04C404.545 2029.04 390.776 2042.93 390.776 2060.08C390.776 2077.22 404.545 2091.11 421.531 2091.11Z" fill="#F0EA8F"/>
<path d="M421.535 2073.37C431.238 2073.37 439.103 2065.43 439.103 2055.64C439.103 2045.85 431.238 2037.91 421.535 2037.91C411.833 2037.91 403.968 2045.85 403.968 2055.64C403.968 2065.43 411.833 2073.37 421.535 2073.37Z" fill="white"/>
<path style="mix-blend-mode:screen" d="M265.963 1550.29C307.926 1550.29 341.944 1515.96 341.944 1473.61C341.944 1431.26 307.926 1396.92 265.963 1396.92C224 1396.92 189.982 1431.26 189.982 1473.61C189.982 1515.96 224 1550.29 265.963 1550.29Z" fill="url(#paint10_radial_2_837)"/>
<path d="M265.958 1524.72C289.936 1524.72 309.374 1503.58 309.374 1477.51C309.374 1451.44 289.936 1430.31 265.958 1430.31C241.98 1430.31 222.542 1451.44 222.542 1477.51C222.542 1503.58 241.98 1524.72 265.958 1524.72Z" fill="#333333"/>
<path d="M308.251 1484.01C313.694 1460.44 299.176 1436.89 275.824 1431.39C252.472 1425.9 229.129 1440.55 223.686 1464.12C218.244 1487.69 232.762 1511.25 256.114 1516.74C279.466 1522.23 302.808 1507.58 308.251 1484.01Z" fill="white"/>
<path d="M265.96 1509.6C282.945 1509.6 296.715 1494.71 296.715 1476.34C296.715 1457.97 282.945 1443.08 265.96 1443.08C248.975 1443.08 235.205 1457.97 235.205 1476.34C235.205 1494.71 248.975 1509.6 265.96 1509.6Z" fill="#333333"/>
<path d="M295.919 1481.25C299.789 1464.55 289.519 1447.86 272.981 1443.95C256.442 1440.05 239.898 1450.41 236.028 1467.1C232.158 1483.79 242.428 1500.49 258.966 1504.4C275.505 1508.3 292.05 1497.94 295.919 1481.25Z" fill="#F0EA8F"/>
<path d="M265.965 1487.42C275.667 1487.42 283.532 1479.48 283.532 1469.69C283.532 1459.89 275.667 1451.96 265.965 1451.96C256.262 1451.96 248.397 1459.89 248.397 1469.69C248.397 1479.48 256.262 1487.42 265.965 1487.42Z" fill="white"/>
<path style="mix-blend-mode:screen" d="M421.535 964.317C463.498 964.317 497.516 929.985 497.516 887.634C497.516 845.283 463.498 810.951 421.535 810.951C379.572 810.951 345.554 845.283 345.554 887.634C345.554 929.985 379.572 964.317 421.535 964.317Z" fill="url(#paint11_radial_2_837)"/>
<path d="M421.53 938.76C445.508 938.76 464.946 917.625 464.946 891.554C464.946 865.483 445.508 844.348 421.53 844.348C397.552 844.348 378.114 865.483 378.114 891.554C378.114 917.625 397.552 938.76 421.53 938.76Z" fill="#333333"/>
<path d="M421.53 931.966C445.508 931.966 464.946 912.349 464.946 888.15C464.946 863.95 445.508 844.333 421.53 844.333C397.552 844.333 378.114 863.95 378.114 888.15C378.114 912.349 397.552 931.966 421.53 931.966Z" fill="white"/>
<path d="M421.532 923.625C438.518 923.625 452.287 908.735 452.287 890.368C452.287 872.001 438.518 857.111 421.532 857.111C404.547 857.111 390.778 872.001 390.778 890.368C390.778 908.735 404.547 923.625 421.532 923.625Z" fill="#333333"/>
<path d="M421.532 919.188C438.518 919.188 452.287 905.292 452.287 888.15C452.287 871.008 438.518 857.111 421.532 857.111C404.547 857.111 390.778 871.008 390.778 888.15C390.778 905.292 404.547 919.188 421.532 919.188Z" fill="#F0EA8F"/>
<path d="M438.493 888.264C441.004 878.806 435.443 869.084 426.071 866.55C416.699 864.015 407.066 869.628 404.555 879.086C402.044 888.545 407.606 898.266 416.977 900.801C426.349 903.335 435.982 897.722 438.493 888.264Z" fill="white"/>
<path style="mix-blend-mode:screen" d="M846.574 535.37C888.537 535.37 922.555 501.037 922.555 458.687C922.555 416.336 888.537 382.004 846.574 382.004C804.61 382.004 770.592 416.336 770.592 458.687C770.592 501.037 804.61 535.37 846.574 535.37Z" fill="url(#paint12_radial_2_837)"/>
<path d="M846.568 509.798C870.546 509.798 889.984 488.663 889.984 462.592C889.984 436.52 870.546 415.385 846.568 415.385C822.59 415.385 803.153 436.52 803.153 462.592C803.153 488.663 822.59 509.798 846.568 509.798Z" fill="#333333"/>
<path d="M846.568 503.019C870.546 503.019 889.984 483.401 889.984 459.202C889.984 435.003 870.546 415.385 846.568 415.385C822.59 415.385 803.153 435.003 803.153 459.202C803.153 483.401 822.59 503.019 846.568 503.019Z" fill="white"/>
<path d="M846.572 494.676C863.558 494.676 877.327 479.787 877.327 461.42C877.327 443.052 863.558 428.163 846.572 428.163C829.587 428.163 815.818 443.052 815.818 461.42C815.818 479.787 829.587 494.676 846.572 494.676Z" fill="#333333"/>
<path d="M846.571 490.241C863.556 490.241 877.325 476.344 877.325 459.202C877.325 442.06 863.556 428.164 846.571 428.164C829.585 428.164 815.816 442.06 815.816 459.202C815.816 476.344 829.585 490.241 846.571 490.241Z" fill="#F0EA8F"/>
<path d="M863.675 458.877C865.915 449.349 860.078 439.793 850.638 437.532C841.198 435.271 831.73 441.162 829.489 450.689C827.249 460.216 833.086 469.773 842.526 472.034C851.966 474.295 861.435 468.404 863.675 458.877Z" fill="white"/>
<path style="mix-blend-mode:screen" d="M1427.33 2793.34C1506.22 2793.34 1570.18 2728.79 1570.18 2649.17C1570.18 2569.55 1506.22 2505.01 1427.33 2505.01C1348.44 2505.01 1284.49 2569.55 1284.49 2649.17C1284.49 2728.79 1348.44 2793.34 1427.33 2793.34Z" fill="url(#paint13_radial_2_837)"/>
<path style="mix-blend-mode:screen" opacity="0.57" d="M1427.33 2816.58C1452.1 2816.58 1472.18 2741.63 1472.18 2649.17C1472.18 2556.71 1452.1 2481.76 1427.33 2481.76C1402.56 2481.76 1382.47 2556.71 1382.47 2649.17C1382.47 2741.63 1402.56 2816.58 1427.33 2816.58Z" fill="url(#paint14_radial_2_837)"/>
<path style="mix-blend-mode:screen" d="M1427.33 2692.13C1552.34 2692.13 1653.68 2672.89 1653.68 2649.17C1653.68 2625.44 1552.34 2606.21 1427.33 2606.21C1302.32 2606.21 1200.98 2625.44 1200.98 2649.17C1200.98 2672.89 1302.32 2692.13 1427.33 2692.13Z" fill="url(#paint15_radial_2_837)"/>
<path style="mix-blend-mode:screen" d="M1638.51 2862.29C1646.01 2854.72 1557.54 2753.17 1440.91 2635.46C1324.28 2517.75 1223.66 2428.47 1216.16 2436.04C1208.65 2443.61 1297.12 2545.17 1413.75 2662.87C1530.38 2780.58 1631 2869.86 1638.51 2862.29Z" fill="url(#paint16_radial_2_837)"/>
<path style="mix-blend-mode:screen" d="M1513.92 388.883C1561.22 341.148 1561.22 263.754 1513.92 216.019C1466.62 168.284 1389.94 168.284 1342.64 216.019C1295.34 263.754 1295.34 341.148 1342.64 388.883C1389.94 436.618 1466.62 436.618 1513.92 388.883Z" fill="url(#paint17_radial_2_837)"/>
<path style="mix-blend-mode:screen" d="M1453.8 328.21C1528.75 252.566 1578.09 179.712 1563.99 165.486C1549.89 151.26 1477.71 201.049 1402.75 276.694C1327.8 352.338 1278.47 425.192 1292.57 439.418C1306.66 453.644 1378.85 403.855 1453.8 328.21Z" fill="url(#paint18_radial_2_837)"/>
<path d="M1607.33 483.16C1621.42 468.941 1552.68 376.508 1453.79 276.706C1354.9 176.905 1263.32 107.528 1249.23 121.747C1235.14 135.967 1303.88 228.4 1402.77 328.201C1501.66 428.003 1593.24 497.38 1607.33 483.16Z" fill="url(#paint19_radial_2_837)" style="mix-blend-mode:screen"/>
<path style="mix-blend-mode:screen" d="M2587.76 1613.71C2664.87 1613.71 2727.37 1550.63 2727.37 1472.81C2727.37 1394.99 2664.87 1331.91 2587.76 1331.91C2510.66 1331.91 2448.15 1394.99 2448.15 1472.81C2448.15 1550.63 2510.66 1613.71 2587.76 1613.71Z" fill="url(#paint20_radial_2_837)"/>
<path style="mix-blend-mode:screen" d="M2587.76 1514.8C2709.95 1514.8 2809 1496 2809 1472.81C2809 1449.62 2709.95 1430.82 2587.76 1430.82C2465.57 1430.82 2366.52 1449.62 2366.52 1472.81C2366.52 1496 2465.57 1514.8 2587.76 1514.8Z" fill="url(#paint21_radial_2_837)"/>
<path style="mix-blend-mode:screen" d="M2601.95 1487.13C2688.35 1399.94 2752.03 1322.83 2744.19 1314.92C2736.35 1307.01 2659.96 1371.28 2573.56 1458.48C2487.16 1545.68 2423.47 1622.78 2431.31 1630.69C2439.15 1638.61 2515.55 1574.33 2601.95 1487.13Z" fill="url(#paint22_radial_2_837)"/>
<path style="mix-blend-mode:screen" d="M2587.76 1767.4C2610.72 1767.4 2629.34 1635.51 2629.34 1472.81C2629.34 1310.11 2610.72 1178.21 2587.76 1178.21C2564.79 1178.21 2546.17 1310.11 2546.17 1472.81C2546.17 1635.51 2564.79 1767.4 2587.76 1767.4Z" fill="url(#paint23_radial_2_837)"/>
<path style="mix-blend-mode:screen" d="M421.528 1028.54C498.633 1028.54 561.139 965.453 561.139 887.635C561.139 809.818 498.633 746.735 421.528 746.735C344.423 746.735 281.917 809.818 281.917 887.635C281.917 965.453 344.423 1028.54 421.528 1028.54Z" fill="url(#paint24_radial_2_837)"/>
<path style="mix-blend-mode:screen" d="M421.519 929.625C543.707 929.625 642.761 910.826 642.761 887.636C642.761 864.446 543.707 845.647 421.519 845.647C299.33 845.647 200.277 864.446 200.277 887.636C200.277 910.826 299.33 929.625 421.519 929.625Z" fill="url(#paint25_radial_2_837)"/>
<path style="mix-blend-mode:screen" d="M435.716 901.957C522.116 814.759 585.802 737.657 577.963 729.744C570.123 721.832 493.726 786.106 407.326 873.304C320.926 960.503 257.24 1037.6 265.079 1045.52C272.919 1053.43 349.316 989.155 435.716 901.957Z" fill="url(#paint26_radial_2_837)"/>
<path style="mix-blend-mode:screen" d="M421.524 1182.23C444.493 1182.23 463.113 1050.34 463.113 887.637C463.113 724.937 444.493 593.042 421.524 593.042C398.555 593.042 379.934 724.937 379.934 887.637C379.934 1050.34 398.555 1182.23 421.524 1182.23Z" fill="url(#paint27_radial_2_837)"/>
<path style="mix-blend-mode:screen" d="M2139.28 591.556C2211.71 518.455 2211.71 399.936 2139.28 326.836C2066.85 253.736 1949.41 253.736 1876.98 326.836C1804.55 399.936 1804.55 518.455 1876.98 591.555C1949.41 664.656 2066.85 664.656 2139.28 591.556Z" fill="url(#paint28_radial_2_837)"/>
<path style="mix-blend-mode:screen" d="M2139.28 591.556C2211.71 518.455 2211.71 399.936 2139.28 326.836C2066.85 253.736 1949.41 253.736 1876.98 326.836C1804.55 399.936 1804.55 518.455 1876.98 591.555C1949.41 664.656 2066.85 664.656 2139.28 591.556Z" fill="url(#paint29_radial_2_837)"/>
<path style="mix-blend-mode:screen" d="M2008.14 481.836C2127.46 481.836 2224.19 471.702 2224.19 459.201C2224.19 446.701 2127.46 436.567 2008.14 436.567C1888.81 436.567 1792.08 446.701 1792.08 459.201C1792.08 471.702 1888.81 481.836 2008.14 481.836Z" fill="url(#paint30_radial_2_837)"/>
<path style="mix-blend-mode:screen" d="M2008.12 677.253C2020.51 677.253 2030.55 579.628 2030.55 459.201C2030.55 338.774 2020.51 241.149 2008.12 241.149C1995.74 241.149 1985.7 338.774 1985.7 459.201C1985.7 579.628 1995.74 677.253 2008.12 677.253Z" fill="url(#paint31_radial_2_837)"/>
<path style="mix-blend-mode:screen" d="M266.681 1635.08C354.403 1635.08 425.516 1563.31 425.516 1474.78C425.516 1386.24 354.403 1314.47 266.681 1314.47C178.959 1314.47 107.847 1386.24 107.847 1474.78C107.847 1563.31 178.959 1635.08 266.681 1635.08Z" fill="url(#paint32_radial_2_837)"/>
<path style="mix-blend-mode:screen" opacity="0.57" d="M266.689 1660.93C294.231 1660.93 316.559 1577.59 316.559 1474.78C316.559 1371.97 294.231 1288.63 266.689 1288.63C239.147 1288.63 216.819 1371.97 216.819 1474.78C216.819 1577.59 239.147 1660.93 266.689 1660.93Z" fill="url(#paint33_radial_2_837)"/>
<path style="mix-blend-mode:screen" d="M266.687 1522.55C405.69 1522.55 518.374 1501.16 518.374 1474.78C518.374 1448.4 405.69 1427.01 266.687 1427.01C127.684 1427.01 15 1448.4 15 1474.78C15 1501.16 127.684 1522.55 266.687 1522.55Z" fill="url(#paint34_radial_2_837)"/>
<path style="mix-blend-mode:screen" d="M501.492 1711.76C509.833 1703.34 411.47 1590.42 281.791 1459.54C152.112 1328.67 40.2242 1229.4 31.8828 1237.81C23.5414 1246.23 121.905 1359.15 251.584 1490.03C381.263 1620.91 493.151 1720.18 501.492 1711.76Z" fill="url(#paint35_radial_2_837)"/>
<defs>
<filter id="filter0_d_2_837" x="49.243" y="98.9119" width="2755.92" height="2779" filterUnits="userSpaceOnUse" color-interpolation-filters="sRGB">
<feFlood flood-opacity="0" result="BackgroundImageFix"/>
<feColorMatrix in="SourceAlpha" type="matrix" values="0 0 0 0 0 0 0 0 0 0 0 0 0 0 0 0 0 0 127 0" result="hardAlpha"/>
<feOffset dy="13.7612"/>
<feGaussianBlur stdDeviation="61.9255"/>
<feComposite in2="hardAlpha" operator="out"/>
<feColorMatrix type="matrix" values="0 0 0 0 0 0 0 0 0 0 0 0 0 0 0 0 0 0 0.25 0"/>
<feBlend mode="normal" in2="BackgroundImageFix" result="effect1_dropShadow_2_837"/>
<feBlend mode="normal" in="SourceGraphic" in2="effect1_dropShadow_2_837" result="shape"/>
</filter>
<radialGradient id="paint0_radial_2_837" cx="0" cy="0" r="1" gradientUnits="userSpaceOnUse" gradientTransform="translate(1427.17 1474.65) scale(1095.19 1105.3)">
<stop stop-color="white"/>
<stop offset="0.63" stop-color="white"/>
<stop offset="0.73" stop-color="white"/>
<stop offset="0.83" stop-color="#FDFDFD"/>
<stop offset="0.87" stop-color="#F6F6F6"/>
<stop offset="0.89" stop-color="#EBEBEB"/>
<stop offset="0.91" stop-color="#DADADA"/>
<stop offset="0.93" stop-color="#C4C4C4"/>
<stop offset="0.95" stop-color="#A8A8A8"/>
<stop offset="0.96" stop-color="#888888"/>
<stop offset="0.97" stop-color="#626262"/>
<stop offset="0.99" stop-color="#373737"/>
<stop offset="1"/>
</radialGradient>
<radialGradient id="paint1_radial_2_837" cx="0" cy="0" r="1" gradientUnits="userSpaceOnUse" gradientTransform="translate(1427.06 301.721) scale(75.9813 76.6829)">
<stop stop-color="#FCEE21"/>
<stop offset="1"/>
</radialGradient>
<radialGradient id="paint2_radial_2_837" cx="0" cy="0" r="1" gradientUnits="userSpaceOnUse" gradientTransform="translate(2007.77 458.671) scale(75.9812 76.6829)">
<stop stop-color="#FCEE21"/>
<stop offset="1"/>
</radialGradient>
<radialGradient id="paint3_radial_2_837" cx="0" cy="0" r="1" gradientUnits="userSpaceOnUse" gradientTransform="translate(2432.8 887.634) scale(75.9813 76.6829)">
<stop stop-color="#FCEE21"/>
<stop offset="1"/>
</radialGradient>
<radialGradient id="paint4_radial_2_837" cx="0" cy="0" r="1" gradientUnits="userSpaceOnUse" gradientTransform="translate(2588.37 1473.59) scale(75.9812 76.6829)">
<stop stop-color="#FCEE21"/>
<stop offset="1"/>
</radialGradient>
<radialGradient id="paint5_radial_2_837" cx="0" cy="0" r="1" gradientUnits="userSpaceOnUse" gradientTransform="translate(2432.8 2059.56) scale(75.9813 76.6829)">
<stop stop-color="#FCEE21"/>
<stop offset="1"/>
</radialGradient>
<radialGradient id="paint6_radial_2_837" cx="0" cy="0" r="1" gradientUnits="userSpaceOnUse" gradientTransform="translate(2007.77 2488.51) scale(75.9812 76.6829)">
<stop stop-color="#FCEE21"/>
<stop offset="1"/>
</radialGradient>
<radialGradient id="paint7_radial_2_837" cx="0" cy="0" r="1" gradientUnits="userSpaceOnUse" gradientTransform="translate(1427.17 2645.52) scale(75.9813 76.6829)">
<stop stop-color="#FCEE21"/>
<stop offset="1"/>
</radialGradient>
<radialGradient id="paint8_radial_2_837" cx="0" cy="0" r="1" gradientUnits="userSpaceOnUse" gradientTransform="translate(846.573 2488.51) scale(75.9812 76.6829)">
<stop stop-color="#FCEE21"/>
<stop offset="1"/>
</radialGradient>
<radialGradient id="paint9_radial_2_837" cx="0" cy="0" r="1" gradientUnits="userSpaceOnUse" gradientTransform="translate(421.549 2059.56) scale(75.9812 76.6829)">
<stop stop-color="#FCEE21"/>
<stop offset="1"/>
</radialGradient>
<radialGradient id="paint10_radial_2_837" cx="0" cy="0" r="1" gradientUnits="userSpaceOnUse" gradientTransform="translate(265.963 1473.59) scale(75.9812 76.6829)">
<stop stop-color="#FCEE21"/>
<stop offset="1"/>
</radialGradient>
<radialGradient id="paint11_radial_2_837" cx="0" cy="0" r="1" gradientUnits="userSpaceOnUse" gradientTransform="translate(421.551 887.634) scale(75.9812 76.6829)">
<stop stop-color="#FCEE21"/>
<stop offset="1"/>
</radialGradient>
<radialGradient id="paint12_radial_2_837" cx="0" cy="0" r="1" gradientUnits="userSpaceOnUse" gradientTransform="translate(846.573 458.671) scale(75.9812 76.6829)">
<stop stop-color="#FCEE21"/>
<stop offset="1"/>
</radialGradient>
<radialGradient id="paint13_radial_2_837" cx="0" cy="0" r="1" gradientUnits="userSpaceOnUse" gradientTransform="translate(1427.33 2649.17) scale(139.023 140.307)">
<stop stop-color="#29ABE2"/>
<stop offset="0.49" stop-color="#155976"/>
<stop offset="1"/>
</radialGradient>
<radialGradient id="paint14_radial_2_837" cx="0" cy="0" r="1" gradientUnits="userSpaceOnUse" gradientTransform="translate(1475.11 2642.21) scale(43.3085 162.541)">
<stop stop-color="#BFEAFF"/>
<stop offset="0.43" stop-color="#6E8793"/>
<stop offset="1"/>
</radialGradient>
<radialGradient id="paint15_radial_2_837" cx="0" cy="0" r="1" gradientUnits="userSpaceOnUse" gradientTransform="translate(1432.52 2746.8) rotate(-90) scale(42.3426 220.603)">
<stop stop-color="#BFEAFF"/>
<stop offset="0.43" stop-color="#6E8793"/>
<stop offset="1"/>
</radialGradient>
<radialGradient id="paint16_radial_2_837" cx="0" cy="0" r="1" gradientTransform="matrix(-13.3948 13.5185 -205.706 -207.606 1413.55 2661.15)" gradientUnits="userSpaceOnUse">
<stop stop-color="#B274AA"/>
<stop offset="0.61" stop-color="#482F44"/>
<stop offset="1"/>
</radialGradient>
<radialGradient id="paint17_radial_2_837" cx="0" cy="0" r="1" gradientUnits="userSpaceOnUse" gradientTransform="translate(1428.28 302.463) scale(117.88 118.969)">
<stop stop-color="#29ABE2"/>
<stop offset="0.49" stop-color="#155976"/>
<stop offset="1"/>
</radialGradient>
<radialGradient id="paint18_radial_2_837" cx="0" cy="0" r="1" gradientTransform="matrix(-25.1543 -25.3866 132.263 -133.484 1481.47 346.813)" gradientUnits="userSpaceOnUse">
<stop stop-color="#BFEAFF"/>
<stop offset="0.43" stop-color="#6E8793"/>
<stop offset="1"/>
</radialGradient>
<radialGradient id="paint19_radial_2_837" cx="0" cy="0" r="1" gradientTransform="matrix(-25.151 25.3832 -174.434 -176.045 1426.22 300.207)" gradientUnits="userSpaceOnUse">
<stop stop-color="#B274AA"/>
<stop offset="0.61" stop-color="#482F44"/>
<stop offset="1"/>
</radialGradient>
<radialGradient id="paint20_radial_2_837" cx="0" cy="0" r="1" gradientTransform="matrix(96.0823 96.9696 -96.0823 96.9696 2587.78 1472.81)" gradientUnits="userSpaceOnUse">
<stop stop-color="#29ABE2"/>
<stop offset="0.49" stop-color="#155976"/>
<stop offset="1"/>
</radialGradient>
<radialGradient id="paint21_radial_2_837" cx="0" cy="0" r="1" gradientUnits="userSpaceOnUse" gradientTransform="translate(2594.5 1541.16) rotate(-90) scale(41.3837 215.608)">
<stop stop-color="#BFEAFF"/>
<stop offset="0.43" stop-color="#6E8793"/>
<stop offset="1"/>
</radialGradient>
<radialGradient id="paint22_radial_2_837" cx="0" cy="0" r="1" gradientTransform="matrix(-14.0298 -14.1594 152.458 -153.865 2636.59 1512.81)" gradientUnits="userSpaceOnUse">
<stop stop-color="#BFEAFF"/>
<stop offset="0.43" stop-color="#6E8793"/>
<stop offset="1"/>
</radialGradient>
<radialGradient id="paint23_radial_2_837" cx="0" cy="0" r="1" gradientUnits="userSpaceOnUse" gradientTransform="translate(2591.07 1469.65) rotate(180) scale(41.0051 287.016)">
<stop stop-color="#B274AA"/>
<stop offset="0.61" stop-color="#482F44"/>
<stop offset="1"/>
</radialGradient>
<radialGradient id="paint24_radial_2_837" cx="0" cy="0" r="1" gradientTransform="matrix(96.0823 96.9696 -96.0823 96.9696 421.519 887.638)" gradientUnits="userSpaceOnUse">
<stop stop-color="#29ABE2"/>
<stop offset="0.49" stop-color="#155976"/>
<stop offset="1"/>
</radialGradient>
<radialGradient id="paint25_radial_2_837" cx="0" cy="0" r="1" gradientUnits="userSpaceOnUse" gradientTransform="translate(425.346 948.527) rotate(-90) scale(41.3838 215.608)">
<stop stop-color="#BFEAFF"/>
<stop offset="0.43" stop-color="#6E8793"/>
<stop offset="1"/>
</radialGradient>
<radialGradient id="paint26_radial_2_837" cx="0" cy="0" r="1" gradientTransform="matrix(-14.0298 -14.1594 152.458 -153.865 447.354 906.606)" gradientUnits="userSpaceOnUse">
<stop stop-color="#BFEAFF"/>
<stop offset="0.43" stop-color="#6E8793"/>
<stop offset="1"/>
</radialGradient>
<radialGradient id="paint27_radial_2_837" cx="0" cy="0" r="1" gradientUnits="userSpaceOnUse" gradientTransform="translate(396.53 883.867) rotate(180) scale(41.0051 287.016)">
<stop stop-color="#B274AA"/>
<stop offset="0.61" stop-color="#482F44"/>
<stop offset="1"/>
</radialGradient>
<radialGradient id="paint28_radial_2_837" cx="0" cy="0" r="1" gradientUnits="userSpaceOnUse" gradientTransform="translate(2008.13 459.213) rotate(-90) scale(182.171 180.504)">
<stop stop-color="#29ABE2"/>
<stop offset="0.49" stop-color="#155976"/>
<stop offset="1"/>
</radialGradient>
<radialGradient id="paint29_radial_2_837" cx="0" cy="0" r="1" gradientUnits="userSpaceOnUse" gradientTransform="translate(2008.13 459.213) rotate(-90) scale(182.171 180.504)">
<stop stop-color="#29ABE2"/>
<stop offset="0.49" stop-color="#155976"/>
<stop offset="1"/>
</radialGradient>
<radialGradient id="paint30_radial_2_837" cx="0" cy="0" r="1" gradientUnits="userSpaceOnUse" gradientTransform="translate(2021.53 423.398) rotate(-90) scale(21.435 210.972)">
<stop stop-color="#BFFFC4"/>
<stop offset="0.43" stop-color="#6E9370"/>
<stop offset="1"/>
</radialGradient>
<radialGradient id="paint31_radial_2_837" cx="0" cy="0" r="1" gradientUnits="userSpaceOnUse" gradientTransform="translate(1907.31 450.871) rotate(180) scale(21.2411 212.944)">
<stop stop-color="#BFEAFF"/>
<stop offset="0.43" stop-color="#6E8793"/>
<stop offset="1"/>
</radialGradient>
<radialGradient id="paint32_radial_2_837" cx="0" cy="0" r="1" gradientUnits="userSpaceOnUse" gradientTransform="translate(266.681 1474.78) scale(154.578 156.006)">
<stop stop-color="#29ABE2"/>
<stop offset="0.49" stop-color="#155976"/>
<stop offset="1"/>
</radialGradient>
<radialGradient id="paint33_radial_2_837" cx="0" cy="0" r="1" gradientUnits="userSpaceOnUse" gradientTransform="translate(323.828 1470.67) scale(48.1525 180.721)">
<stop stop-color="#BFEAFF"/>
<stop offset="0.43" stop-color="#6E8793"/>
<stop offset="1"/>
</radialGradient>
<radialGradient id="paint34_radial_2_837" cx="0" cy="0" r="1" gradientUnits="userSpaceOnUse" gradientTransform="translate(270.318 1557.45) rotate(-90) scale(47.0785 245.277)">
<stop stop-color="#BFEAFF"/>
<stop offset="0.43" stop-color="#6E8793"/>
<stop offset="1"/>
</radialGradient>
<radialGradient id="paint35_radial_2_837" cx="0" cy="0" r="1" gradientTransform="matrix(-14.8934 15.0309 -228.719 -230.832 251.739 1485.55)" gradientUnits="userSpaceOnUse">
<stop stop-color="#B274AA"/>
<stop offset="0.61" stop-color="#482F44"/>
<stop offset="1"/>
</radialGradient>
</defs>
</svg>
