<svg width="2444" height="2449" viewBox="0 0 2444 2449" fill="none" xmlns="http://www.w3.org/2000/svg">
<g clip-path="url(#clip0_2_837)">
<rect width="2444" height="2449" rx="1222" fill="white"/>
<path style="mix-blend-mode:multiply" opacity="0.75" d="M1219.17 2329.95C1824.02 2329.95 2314.35 1835.09 2314.35 1224.65C2314.35 614.21 1824.02 119.349 1219.17 119.349C614.309 119.349 123.977 614.21 123.977 1224.65C123.977 1835.09 614.309 2329.95 1219.17 2329.95Z" fill="url(#paint0_radial_2_837)"/>
<g filter="url(#filter0_d_2_837)">
<path d="M1219.16 37.1063C1869.02 37.1063 2395.84 568.794 2395.84 1224.65C2395.84 1880.51 1869.02 2412.2 1219.16 2412.2C569.307 2412.2 42.4836 1880.51 42.4836 1224.65C42.4836 568.794 569.307 37.1063 1219.16 37.1063ZM1219.16 -40.9981C1134.3 -41.0141 1049.65 -32.3999 966.502 -15.2862C806.042 17.9176 653.628 82.6735 517.951 175.289C316.372 312.613 158.579 505.989 63.6884 731.985C31.605 808.58 7.11293 888.193 -9.42942 969.657C-43.3982 1137.93 -43.3982 1311.38 -9.42942 1479.65C23.4706 1641.59 87.6339 1795.41 179.402 1932.34C315.491 2135.79 507.125 2295.04 731.082 2390.8C806.976 2423.18 885.86 2447.9 966.579 2464.59C1133.31 2498.87 1305.17 2498.87 1471.9 2464.59C1632.36 2431.39 1784.78 2366.63 1920.45 2274.02C2122.04 2136.67 2279.84 1943.27 2374.72 1717.24C2406.8 1640.65 2431.29 1561.03 2447.83 1479.57C2481.8 1311.3 2481.8 1137.85 2447.83 969.579C2414.93 807.638 2350.77 653.816 2259 516.886C2122.91 313.434 1931.28 154.183 1707.32 58.4287C1631.43 26.049 1552.55 1.33082 1471.83 -15.3643C1388.67 -32.4518 1304.02 -41.0398 1219.16 -40.9981Z" fill="white"/>
</g>
<path d="M1219.16 2457.5C917.227 2457.09 626.2 2343.52 402.539 2138.81C178.878 1934.11 38.5272 1652.85 8.71194 1349.62C-21.1033 1046.38 61.7429 742.774 241.179 497.697C420.616 252.619 683.852 83.5385 979.822 23.2552C1275.79 -37.0281 1583.4 15.7828 1842.97 171.443C2102.54 327.104 2295.58 574.518 2384.63 865.69C2473.67 1156.86 2452.39 1471.04 2324.9 1747.27C2197.42 2023.5 1972.81 2242.09 1694.66 2360.65C1544.23 2424.89 1382.51 2457.83 1219.16 2457.5V2457.5ZM1219.16 119.35C615.277 119.35 123.976 615.188 123.976 1224.65C123.976 1834.12 615.277 2329.95 1219.16 2329.95C1823.05 2329.95 2314.35 1834.12 2314.35 1224.65C2314.35 615.188 1823.05 119.35 1219.16 119.35V119.35Z" fill="#933B93"/>
<path style="mix-blend-mode:screen" d="M1293.43 67.3611C1302.04 25.9114 1275.73 -14.7345 1234.66 -23.424C1193.59 -32.1135 1153.31 -5.55614 1144.7 35.8936C1136.09 77.3434 1162.41 117.989 1203.48 126.679C1244.55 135.368 1284.82 108.811 1293.43 67.3611Z" fill="url(#paint1_radial_2_837)"/>
<path d="M1219.16 102.794C1243.14 102.794 1262.58 81.6589 1262.58 55.5875C1262.58 29.5162 1243.14 8.38123 1219.16 8.38123C1195.18 8.38123 1175.75 29.5162 1175.75 55.5875C1175.75 81.6589 1195.18 102.794 1219.16 102.794Z" fill="#333333"/>
<path d="M1219.16 96.0144C1243.14 96.0144 1262.58 76.397 1262.58 52.1978C1262.58 27.9986 1243.14 8.38123 1219.16 8.38123C1195.18 8.38123 1175.75 27.9986 1175.75 52.1978C1175.75 76.397 1195.18 96.0144 1219.16 96.0144Z" fill="white"/>
<path d="M1219.16 87.671C1236.15 87.671 1249.92 72.7813 1249.92 54.4141C1249.92 36.0468 1236.15 21.1572 1219.16 21.1572C1202.18 21.1572 1188.41 36.0468 1188.41 54.4141C1188.41 72.7813 1202.18 87.671 1219.16 87.671Z" fill="#333333"/>
<path d="M1219.16 83.2346C1236.15 83.2346 1249.92 69.3381 1249.92 52.1959C1249.92 35.0537 1236.15 21.1572 1219.16 21.1572C1202.18 21.1572 1188.41 35.0537 1188.41 52.1959C1188.41 69.3381 1202.18 83.2346 1219.16 83.2346Z" fill="#F0EA8F"/>
<path d="M1236.4 51.4626C1238.41 41.884 1232.35 32.4714 1222.86 30.4389C1213.37 28.4064 1204.04 34.5237 1202.03 44.1023C1200.01 53.6809 1206.07 63.0935 1215.56 65.126C1225.06 67.1585 1234.38 61.0412 1236.4 51.4626Z" fill="white"/>
<path style="mix-blend-mode:screen" d="M1799.76 285.37C1841.72 285.37 1875.74 251.038 1875.74 208.687C1875.74 166.336 1841.72 132.004 1799.76 132.004C1757.79 132.004 1723.78 166.336 1723.78 208.687C1723.78 251.038 1757.79 285.37 1799.76 285.37Z" fill="url(#paint2_radial_2_837)"/>
<path d="M1799.76 259.798C1823.74 259.798 1843.18 238.663 1843.18 212.592C1843.18 186.521 1823.74 165.386 1799.76 165.386C1775.78 165.386 1756.35 186.521 1756.35 212.592C1756.35 238.663 1775.78 259.798 1799.76 259.798Z" fill="#333333"/>
<path d="M1799.76 253.019C1823.74 253.019 1843.18 233.401 1843.18 209.202C1843.18 185.003 1823.74 165.386 1799.76 165.386C1775.78 165.386 1756.35 185.003 1756.35 209.202C1756.35 233.401 1775.78 253.019 1799.76 253.019Z" fill="white"/>
<path d="M1799.76 244.677C1816.74 244.677 1830.51 229.788 1830.51 211.421C1830.51 193.053 1816.74 178.164 1799.76 178.164C1782.77 178.164 1769 193.053 1769 211.421C1769 229.788 1782.77 244.677 1799.76 244.677Z" fill="#333333"/>
<path d="M1799.76 240.241C1816.74 240.241 1830.51 226.345 1830.51 209.202C1830.51 192.06 1816.74 178.164 1799.76 178.164C1782.77 178.164 1769 192.06 1769 209.202C1769 226.345 1782.77 240.241 1799.76 240.241Z" fill="#F0EA8F"/>
<path d="M1812.17 217.313C1819.04 210.389 1819.04 199.164 1812.17 192.24C1805.31 185.316 1794.19 185.316 1787.33 192.24C1780.47 199.163 1780.47 210.389 1787.33 217.313C1794.19 224.237 1805.31 224.237 1812.17 217.313Z" fill="white"/>
<path style="mix-blend-mode:screen" d="M2224.8 714.317C2266.76 714.317 2300.78 679.985 2300.78 637.634C2300.78 595.283 2266.76 560.951 2224.8 560.951C2182.83 560.951 2148.81 595.283 2148.81 637.634C2148.81 679.985 2182.83 714.317 2224.8 714.317Z" fill="url(#paint3_radial_2_837)"/>
<path d="M2224.8 688.76C2248.78 688.76 2268.21 667.625 2268.21 641.554C2268.21 615.483 2248.78 594.348 2224.8 594.348C2200.82 594.348 2181.38 615.483 2181.38 641.554C2181.38 667.625 2200.82 688.76 2224.8 688.76Z" fill="#333333"/>
<path d="M2224.8 681.966C2248.78 681.966 2268.21 662.349 2268.21 638.15C2268.21 613.95 2248.78 594.333 2224.8 594.333C2200.82 594.333 2181.38 613.95 2181.38 638.15C2181.38 662.349 2200.82 681.966 2224.8 681.966Z" fill="white"/>
<path d="M2224.79 673.625C2241.78 673.625 2255.55 658.735 2255.55 640.368C2255.55 622.001 2241.78 607.111 2224.79 607.111C2207.81 607.111 2194.04 622.001 2194.04 640.368C2194.04 658.735 2207.81 673.625 2224.79 673.625Z" fill="#333333"/>
<path d="M2224.79 669.189C2241.78 669.189 2255.55 655.292 2255.55 638.15C2255.55 621.008 2241.78 607.111 2224.79 607.111C2207.81 607.111 2194.04 621.008 2194.04 638.15C2194.04 655.292 2207.81 669.189 2224.79 669.189Z" fill="#F0EA8F"/>
<path d="M2237.22 646.261C2244.08 639.337 2244.08 628.111 2237.22 621.187C2230.36 614.263 2219.24 614.263 2212.38 621.187C2205.52 628.111 2205.52 639.337 2212.38 646.261C2219.24 653.185 2230.36 653.185 2237.22 646.261Z" fill="white"/>
<path style="mix-blend-mode:screen" d="M2380.37 1300.29C2422.33 1300.29 2456.35 1265.96 2456.35 1223.61C2456.35 1181.26 2422.33 1146.92 2380.37 1146.92C2338.41 1146.92 2304.39 1181.26 2304.39 1223.61C2304.39 1265.96 2338.41 1300.29 2380.37 1300.29Z" fill="url(#paint4_radial_2_837)"/>
<path d="M2380.37 1274.72C2404.34 1274.72 2423.78 1253.58 2423.78 1227.51C2423.78 1201.44 2404.34 1180.31 2380.37 1180.31C2356.39 1180.31 2336.95 1201.44 2336.95 1227.51C2336.95 1253.58 2356.39 1274.72 2380.37 1274.72Z" fill="#333333"/>
<path d="M2411.06 1255.1C2428.02 1237.99 2428.02 1210.25 2411.06 1193.14C2394.11 1176.02 2366.62 1176.02 2349.67 1193.14C2332.71 1210.25 2332.71 1237.99 2349.67 1255.1C2366.62 1272.21 2394.11 1272.21 2411.06 1255.1Z" fill="white"/>
<path d="M2380.37 1259.6C2397.35 1259.6 2411.12 1244.71 2411.12 1226.34C2411.12 1207.97 2397.35 1193.08 2380.37 1193.08C2363.38 1193.08 2349.61 1207.97 2349.61 1226.34C2349.61 1244.71 2363.38 1259.6 2380.37 1259.6Z" fill="#333333"/>
<path d="M2402.11 1246.07C2414.12 1233.94 2414.12 1214.29 2402.11 1202.17C2390.1 1190.05 2370.62 1190.05 2358.61 1202.17C2346.6 1214.29 2346.6 1233.94 2358.61 1246.07C2370.62 1258.19 2390.1 1258.19 2402.11 1246.07Z" fill="#F0EA8F"/>
<path d="M2380.37 1237.42C2390.07 1237.42 2397.94 1229.48 2397.94 1219.69C2397.94 1209.89 2390.07 1201.96 2380.37 1201.96C2370.67 1201.96 2362.8 1209.89 2362.8 1219.69C2362.8 1229.48 2370.67 1237.42 2380.37 1237.42Z" fill="white"/>
<path style="mix-blend-mode:screen" d="M2224.8 1886.24C2266.76 1886.24 2300.78 1851.91 2300.78 1809.56C2300.78 1767.21 2266.76 1732.88 2224.8 1732.88C2182.83 1732.88 2148.81 1767.21 2148.81 1809.56C2148.81 1851.91 2182.83 1886.24 2224.8 1886.24Z" fill="url(#paint5_radial_2_837)"/>
<path d="M2224.8 1860.67C2248.78 1860.67 2268.21 1839.54 2268.21 1813.47C2268.21 1787.39 2248.78 1766.26 2224.8 1766.26C2200.82 1766.26 2181.38 1787.39 2181.38 1813.47C2181.38 1839.54 2200.82 1860.67 2224.8 1860.67Z" fill="#333333"/>
<path d="M2224.8 1853.89C2248.78 1853.89 2268.21 1834.28 2268.21 1810.08C2268.21 1785.88 2248.78 1766.26 2224.8 1766.26C2200.82 1766.26 2181.38 1785.88 2181.38 1810.08C2181.38 1834.28 2200.82 1853.89 2224.8 1853.89Z" fill="white"/>
<path d="M2224.79 1845.55C2241.78 1845.55 2255.55 1830.66 2255.55 1812.29C2255.55 1793.93 2241.78 1779.04 2224.79 1779.04C2207.81 1779.04 2194.04 1793.93 2194.04 1812.29C2194.04 1830.66 2207.81 1845.55 2224.79 1845.55Z" fill="#333333"/>
<path d="M2224.79 1841.11C2241.78 1841.11 2255.55 1827.22 2255.55 1810.08C2255.55 1792.93 2241.78 1779.04 2224.79 1779.04C2207.81 1779.04 2194.04 1792.93 2194.04 1810.08C2194.04 1827.22 2207.81 1841.11 2224.79 1841.11Z" fill="#F0EA8F"/>
<path d="M2224.8 1823.37C2234.5 1823.37 2242.36 1815.43 2242.36 1805.64C2242.36 1795.85 2234.5 1787.91 2224.8 1787.91C2215.1 1787.91 2207.23 1795.85 2207.23 1805.64C2207.23 1815.43 2215.1 1823.37 2224.8 1823.37Z" fill="white"/>
<path style="mix-blend-mode:screen" d="M1799.76 2315.19C1841.72 2315.19 1875.74 2280.86 1875.74 2238.51C1875.74 2196.16 1841.72 2161.83 1799.76 2161.83C1757.79 2161.83 1723.78 2196.16 1723.78 2238.51C1723.78 2280.86 1757.79 2315.19 1799.76 2315.19Z" fill="url(#paint6_radial_2_837)"/>
<path d="M1799.76 2289.63C1823.74 2289.63 1843.18 2268.5 1843.18 2242.43C1843.18 2216.36 1823.74 2195.22 1799.76 2195.22C1775.78 2195.22 1756.35 2216.36 1756.35 2242.43C1756.35 2268.5 1775.78 2289.63 1799.76 2289.63Z" fill="#333333"/>
<path d="M1799.76 2282.86C1823.74 2282.86 1843.18 2263.24 1843.18 2239.04C1843.18 2214.84 1823.74 2195.22 1799.76 2195.22C1775.78 2195.22 1756.35 2214.84 1756.35 2239.04C1756.35 2263.24 1775.78 2282.86 1799.76 2282.86Z" fill="white"/>
<path d="M1799.76 2274.5C1816.74 2274.5 1830.51 2259.61 1830.51 2241.24C1830.51 2222.87 1816.74 2207.99 1799.76 2207.99C1782.77 2207.99 1769 2222.87 1769 2241.24C1769 2259.61 1782.77 2274.5 1799.76 2274.5Z" fill="#333333"/>
<path d="M1799.76 2270.08C1816.74 2270.08 1830.51 2256.18 1830.51 2239.04C1830.51 2221.9 1816.74 2208 1799.76 2208C1782.77 2208 1769 2221.9 1769 2239.04C1769 2256.18 1782.77 2270.08 1799.76 2270.08Z" fill="#F0EA8F"/>
<path d="M1799.76 2252.33C1809.46 2252.33 1817.33 2244.4 1817.33 2234.6C1817.33 2224.81 1809.46 2216.87 1799.76 2216.87C1790.06 2216.87 1782.19 2224.81 1782.19 2234.6C1782.19 2244.4 1790.06 2252.33 1799.76 2252.33Z" fill="white"/>
<path style="mix-blend-mode:screen" d="M1272.88 2449.74C1302.56 2419.79 1302.56 2371.24 1272.88 2341.3C1243.21 2311.35 1195.1 2311.35 1165.43 2341.3C1135.76 2371.24 1135.76 2419.79 1165.43 2449.74C1195.1 2479.69 1243.21 2479.69 1272.88 2449.74Z" fill="url(#paint7_radial_2_837)"/>
<path d="M1219.16 2446.64C1243.14 2446.64 1262.58 2425.51 1262.58 2399.44C1262.58 2373.36 1243.14 2352.23 1219.16 2352.23C1195.19 2352.23 1175.75 2373.36 1175.75 2399.44C1175.75 2425.51 1195.19 2446.64 1219.16 2446.64Z" fill="#333333"/>
<path d="M1219.16 2439.86C1243.14 2439.86 1262.58 2420.24 1262.58 2396.05C1262.58 2371.85 1243.14 2352.23 1219.16 2352.23C1195.19 2352.23 1175.75 2371.85 1175.75 2396.05C1175.75 2420.24 1195.19 2439.86 1219.16 2439.86Z" fill="white"/>
<path d="M1219.17 2431.52C1236.15 2431.52 1249.92 2416.63 1249.92 2398.26C1249.92 2379.9 1236.15 2365.01 1219.17 2365.01C1202.18 2365.01 1188.41 2379.9 1188.41 2398.26C1188.41 2416.63 1202.18 2431.52 1219.17 2431.52Z" fill="#333333"/>
<path d="M1219.17 2427.08C1236.15 2427.08 1249.92 2413.19 1249.92 2396.05C1249.92 2378.9 1236.15 2365.01 1219.17 2365.01C1202.18 2365.01 1188.41 2378.9 1188.41 2396.05C1188.41 2413.19 1202.18 2427.08 1219.17 2427.08Z" fill="#F0EA8F"/>
<path d="M1236.4 2395.41C1238.41 2385.83 1232.35 2376.42 1222.86 2374.38C1213.37 2372.35 1204.04 2378.47 1202.03 2388.05C1200.01 2397.63 1206.08 2407.04 1215.57 2409.07C1225.06 2411.1 1234.38 2404.99 1236.4 2395.41Z" fill="white"/>
<path style="mix-blend-mode:screen" d="M638.573 2315.19C680.536 2315.19 714.554 2280.86 714.554 2238.51C714.554 2196.16 680.536 2161.82 638.573 2161.82C596.609 2161.82 562.591 2196.16 562.591 2238.51C562.591 2280.86 596.609 2315.19 638.573 2315.19Z" fill="url(#paint8_radial_2_837)"/>
<path d="M638.567 2289.63C662.545 2289.63 681.983 2268.5 681.983 2242.43C681.983 2216.35 662.545 2195.22 638.567 2195.22C614.59 2195.22 595.152 2216.35 595.152 2242.43C595.152 2268.5 614.59 2289.63 638.567 2289.63Z" fill="#333333"/>
<path d="M638.567 2282.85C662.545 2282.85 681.983 2263.24 681.983 2239.04C681.983 2214.84 662.545 2195.22 638.567 2195.22C614.59 2195.22 595.152 2214.84 595.152 2239.04C595.152 2263.24 614.59 2282.85 638.567 2282.85Z" fill="white"/>
<path d="M638.57 2274.5C655.555 2274.5 669.324 2259.61 669.324 2241.24C669.324 2222.87 655.555 2207.98 638.57 2207.98C621.584 2207.98 607.815 2222.87 607.815 2241.24C607.815 2259.61 621.584 2274.5 638.57 2274.5Z" fill="#333333"/>
<path d="M638.57 2270.08C655.555 2270.08 669.324 2256.18 669.324 2239.04C669.324 2221.89 655.555 2208 638.57 2208C621.584 2208 607.815 2221.89 607.815 2239.04C607.815 2256.18 621.584 2270.08 638.57 2270.08Z" fill="#F0EA8F"/>
<path d="M638.574 2252.33C648.277 2252.33 656.142 2244.39 656.142 2234.6C656.142 2224.81 648.277 2216.87 638.574 2216.87C628.872 2216.87 621.007 2224.81 621.007 2234.6C621.007 2244.39 628.872 2252.33 638.574 2252.33Z" fill="white"/>
<path style="mix-blend-mode:screen" d="M213.534 1886.24C255.497 1886.24 289.515 1851.91 289.515 1809.56C289.515 1767.21 255.497 1732.88 213.534 1732.88C171.57 1732.88 137.552 1767.21 137.552 1809.56C137.552 1851.91 171.57 1886.24 213.534 1886.24Z" fill="url(#paint9_radial_2_837)"/>
<path d="M213.528 1860.67C237.506 1860.67 256.944 1839.54 256.944 1813.47C256.944 1787.39 237.506 1766.26 213.528 1766.26C189.551 1766.26 170.113 1787.39 170.113 1813.47C170.113 1839.54 189.551 1860.67 213.528 1860.67Z" fill="#333333"/>
<path d="M213.528 1853.89C237.506 1853.89 256.944 1834.28 256.944 1810.08C256.944 1785.88 237.506 1766.26 213.528 1766.26C189.551 1766.26 170.113 1785.88 170.113 1810.08C170.113 1834.28 189.551 1853.89 213.528 1853.89Z" fill="white"/>
<path d="M213.531 1845.55C230.516 1845.55 244.285 1830.66 244.285 1812.29C244.285 1793.93 230.516 1779.04 213.531 1779.04C196.545 1779.04 182.776 1793.93 182.776 1812.29C182.776 1830.66 196.545 1845.55 213.531 1845.55Z" fill="#333333"/>
<path d="M213.531 1841.11C230.516 1841.11 244.285 1827.22 244.285 1810.08C244.285 1792.93 230.516 1779.04 213.531 1779.04C196.545 1779.04 182.776 1792.93 182.776 1810.08C182.776 1827.22 196.545 1841.11 213.531 1841.11Z" fill="#F0EA8F"/>
<path d="M213.535 1823.37C223.238 1823.37 231.103 1815.43 231.103 1805.64C231.103 1795.85 223.238 1787.91 213.535 1787.91C203.833 1787.91 195.968 1795.85 195.968 1805.64C195.968 1815.43 203.833 1823.37 213.535 1823.37Z" fill="white"/>
<path style="mix-blend-mode:screen" d="M57.9631 1300.29C99.9264 1300.29 133.944 1265.96 133.944 1223.61C133.944 1181.26 99.9264 1146.92 57.9631 1146.92C15.9998 1146.92 -18.0182 1181.26 -18.0182 1223.61C-18.0182 1265.96 15.9998 1300.29 57.9631 1300.29Z" fill="url(#paint10_radial_2_837)"/>
<path d="M57.9579 1274.72C81.9357 1274.72 101.374 1253.58 101.374 1227.51C101.374 1201.44 81.9357 1180.31 57.9579 1180.31C33.9801 1180.31 14.5422 1201.44 14.5422 1227.51C14.5422 1253.58 33.9801 1274.72 57.9579 1274.72Z" fill="#333333"/>
<path d="M100.251 1234.01C105.694 1210.44 91.1756 1186.89 67.8237 1181.39C44.4718 1175.9 21.1291 1190.55 15.6864 1214.12C10.2436 1237.69 24.7619 1261.25 48.1138 1266.74C71.4657 1272.23 94.8083 1257.58 100.251 1234.01Z" fill="white"/>
<path d="M57.96 1259.6C74.9454 1259.6 88.7147 1244.71 88.7147 1226.34C88.7147 1207.97 74.9454 1193.08 57.96 1193.08C40.9747 1193.08 27.2053 1207.97 27.2053 1226.34C27.2053 1244.71 40.9747 1259.6 57.96 1259.6Z" fill="#333333"/>
<path d="M87.9195 1231.25C91.7894 1214.55 81.5194 1197.86 64.9808 1193.95C48.4422 1190.05 31.8978 1200.41 28.0278 1217.1C24.1579 1233.79 34.4278 1250.49 50.9664 1254.4C67.505 1258.3 84.0495 1247.94 87.9195 1231.25Z" fill="#F0EA8F"/>
<path d="M57.9647 1237.42C67.6669 1237.42 75.5322 1229.48 75.5322 1219.69C75.5322 1209.89 67.6669 1201.96 57.9647 1201.96C48.2625 1201.96 40.3972 1209.89 40.3972 1219.69C40.3972 1229.48 48.2625 1237.42 57.9647 1237.42Z" fill="white"/>
<path style="mix-blend-mode:screen" d="M213.535 714.317C255.498 714.317 289.516 679.985 289.516 637.634C289.516 595.283 255.498 560.951 213.535 560.951C171.572 560.951 137.554 595.283 137.554 637.634C137.554 679.985 171.572 714.317 213.535 714.317Z" fill="url(#paint11_radial_2_837)"/>
<path d="M213.53 688.76C237.508 688.76 256.945 667.625 256.945 641.554C256.945 615.483 237.508 594.348 213.53 594.348C189.552 594.348 170.114 615.483 170.114 641.554C170.114 667.625 189.552 688.76 213.53 688.76Z" fill="#333333"/>
<path d="M213.53 681.966C237.508 681.966 256.945 662.349 256.945 638.15C256.945 613.95 237.508 594.333 213.53 594.333C189.552 594.333 170.114 613.95 170.114 638.15C170.114 662.349 189.552 681.966 213.53 681.966Z" fill="white"/>
<path d="M213.532 673.625C230.517 673.625 244.287 658.735 244.287 640.368C244.287 622.001 230.517 607.111 213.532 607.111C196.547 607.111 182.777 622.001 182.777 640.368C182.777 658.735 196.547 673.625 213.532 673.625Z" fill="#333333"/>
<path d="M213.532 669.189C230.517 669.189 244.287 655.292 244.287 638.15C244.287 621.008 230.517 607.111 213.532 607.111C196.547 607.111 182.777 621.008 182.777 638.15C182.777 655.292 196.547 669.189 213.532 669.189Z" fill="#F0EA8F"/>
<path d="M230.493 638.264C233.004 628.806 227.443 619.084 218.071 616.55C208.699 614.015 199.066 619.628 196.555 629.086C194.044 638.545 199.606 648.266 208.977 650.801C218.349 653.335 227.982 647.722 230.493 638.264Z" fill="white"/>
<path style="mix-blend-mode:screen" d="M638.573 285.37C680.537 285.37 714.555 251.038 714.555 208.687C714.555 166.336 680.537 132.004 638.573 132.004C596.61 132.004 562.592 166.336 562.592 208.687C562.592 251.038 596.61 285.37 638.573 285.37Z" fill="url(#paint12_radial_2_837)"/>
<path d="M638.568 259.798C662.546 259.798 681.984 238.663 681.984 212.592C681.984 186.521 662.546 165.386 638.568 165.386C614.59 165.386 595.153 186.521 595.153 212.592C595.153 238.663 614.59 259.798 638.568 259.798Z" fill="#333333"/>
<path d="M638.568 253.019C662.546 253.019 681.984 233.401 681.984 209.202C681.984 185.003 662.546 165.386 638.568 165.386C614.59 165.386 595.153 185.003 595.153 209.202C595.153 233.401 614.59 253.019 638.568 253.019Z" fill="white"/>
<path d="M638.572 244.677C655.558 244.677 669.327 229.787 669.327 211.42C669.327 193.052 655.558 178.163 638.572 178.163C621.587 178.163 607.818 193.052 607.818 211.42C607.818 229.787 621.587 244.677 638.572 244.677Z" fill="#333333"/>
<path d="M638.57 240.241C655.556 240.241 669.325 226.345 669.325 209.202C669.325 192.06 655.556 178.164 638.57 178.164C621.585 178.164 607.816 192.06 607.816 209.202C607.816 226.345 621.585 240.241 638.57 240.241Z" fill="#F0EA8F"/>
<path d="M655.675 208.877C657.915 199.35 652.078 189.793 642.638 187.532C633.198 185.272 623.729 191.162 621.489 200.689C619.249 210.217 625.086 219.773 634.526 222.034C643.966 224.295 653.435 218.404 655.675 208.877Z" fill="white"/>
<path style="mix-blend-mode:screen" d="M1219.33 2543.34C1298.22 2543.34 1362.18 2478.79 1362.18 2399.17C1362.18 2319.55 1298.22 2255.01 1219.33 2255.01C1140.44 2255.01 1076.49 2319.55 1076.49 2399.17C1076.49 2478.79 1140.44 2543.34 1219.33 2543.34Z" fill="url(#paint13_radial_2_837)"/>
<path style="mix-blend-mode:screen" opacity="0.57" d="M1219.33 2566.58C1244.1 2566.58 1264.18 2491.63 1264.18 2399.17C1264.18 2306.71 1244.1 2231.76 1219.33 2231.76C1194.56 2231.76 1174.47 2306.71 1174.47 2399.17C1174.47 2491.63 1194.56 2566.58 1219.33 2566.58Z" fill="url(#paint14_radial_2_837)"/>
<path style="mix-blend-mode:screen" d="M1219.33 2442.13C1344.34 2442.13 1445.68 2422.89 1445.68 2399.17C1445.68 2375.44 1344.34 2356.21 1219.33 2356.21C1094.32 2356.21 992.981 2375.44 992.981 2399.17C992.981 2422.89 1094.32 2442.13 1219.33 2442.13Z" fill="url(#paint15_radial_2_837)"/>
<path style="mix-blend-mode:screen" d="M1430.51 2612.29C1438.01 2604.72 1349.54 2503.17 1232.91 2385.46C1116.28 2267.75 1015.66 2178.47 1008.16 2186.04C1000.65 2193.61 1089.12 2295.17 1205.75 2412.87C1322.38 2530.58 1423 2619.86 1430.51 2612.29Z" fill="url(#paint16_radial_2_837)"/>
<path style="mix-blend-mode:screen" d="M1305.92 138.883C1353.22 91.1479 1353.22 13.754 1305.92 -33.9811C1258.62 -81.7162 1181.94 -81.7162 1134.64 -33.9811C1087.34 13.754 1087.34 91.1479 1134.64 138.883C1181.94 186.618 1258.62 186.618 1305.92 138.883Z" fill="url(#paint17_radial_2_837)"/>
<path style="mix-blend-mode:screen" d="M1245.8 78.2104C1320.75 2.56629 1370.09 -70.2878 1355.99 -84.5138C1341.89 -98.7398 1269.71 -48.9505 1194.75 26.6936C1119.8 102.338 1070.47 175.192 1084.57 189.418C1098.66 203.644 1170.85 153.855 1245.8 78.2104Z" fill="url(#paint18_radial_2_837)"/>
<path d="M1399.33 233.16C1413.42 218.941 1344.68 126.508 1245.79 26.7065C1146.9 -73.095 1055.32 -142.472 1041.23 -128.253C1027.14 -114.033 1095.88 -21.6002 1194.77 78.2012C1293.66 178.003 1385.24 247.38 1399.33 233.16Z" fill="url(#paint19_radial_2_837)" style="mix-blend-mode:screen"/>
<path style="mix-blend-mode:screen" d="M2379.76 1363.71C2456.87 1363.71 2519.37 1300.63 2519.37 1222.81C2519.37 1144.99 2456.87 1081.91 2379.76 1081.91C2302.66 1081.91 2240.15 1144.99 2240.15 1222.81C2240.15 1300.63 2302.66 1363.71 2379.76 1363.71Z" fill="url(#paint20_radial_2_837)"/>
<path style="mix-blend-mode:screen" d="M2379.76 1264.8C2501.95 1264.8 2601 1246 2601 1222.81C2601 1199.62 2501.95 1180.82 2379.76 1180.82C2257.57 1180.82 2158.52 1199.62 2158.52 1222.81C2158.52 1246 2257.57 1264.8 2379.76 1264.8Z" fill="url(#paint21_radial_2_837)"/>
<path style="mix-blend-mode:screen" d="M2393.95 1237.13C2480.35 1149.94 2544.03 1072.83 2536.19 1064.92C2528.35 1057.01 2451.96 1121.28 2365.56 1208.48C2279.16 1295.68 2215.47 1372.78 2223.31 1380.69C2231.15 1388.61 2307.55 1324.33 2393.95 1237.13Z" fill="url(#paint22_radial_2_837)"/>
<path style="mix-blend-mode:screen" d="M2379.76 1517.4C2402.72 1517.4 2421.34 1385.51 2421.34 1222.81C2421.34 1060.11 2402.72 928.214 2379.76 928.214C2356.79 928.214 2338.17 1060.11 2338.17 1222.81C2338.17 1385.51 2356.79 1517.4 2379.76 1517.4Z" fill="url(#paint23_radial_2_837)"/>
<path style="mix-blend-mode:screen" d="M213.528 778.536C290.633 778.536 353.139 715.453 353.139 637.635C353.139 559.818 290.633 496.735 213.528 496.735C136.423 496.735 73.9172 559.818 73.9172 637.635C73.9172 715.453 136.423 778.536 213.528 778.536Z" fill="url(#paint24_radial_2_837)"/>
<path style="mix-blend-mode:screen" d="M213.519 679.625C335.707 679.625 434.761 660.826 434.761 637.636C434.761 614.446 335.707 595.647 213.519 595.647C91.3303 595.647 -7.72302 614.446 -7.72302 637.636C-7.72302 660.826 91.3303 679.625 213.519 679.625Z" fill="url(#paint25_radial_2_837)"/>
<path style="mix-blend-mode:screen" d="M227.716 651.957C314.116 564.759 377.802 487.657 369.963 479.744C362.123 471.832 285.726 536.106 199.326 623.304C112.926 710.503 49.2397 787.605 57.0794 795.517C64.9191 803.429 141.316 739.155 227.716 651.957Z" fill="url(#paint26_radial_2_837)"/>
<path style="mix-blend-mode:screen" d="M213.524 932.231C236.493 932.231 255.113 800.336 255.113 637.637C255.113 474.937 236.493 343.042 213.524 343.042C190.555 343.042 171.934 474.937 171.934 637.637C171.934 800.336 190.555 932.231 213.524 932.231Z" fill="url(#paint27_radial_2_837)"/>
<path style="mix-blend-mode:screen" d="M1931.28 341.556C2003.71 268.455 2003.71 149.936 1931.28 76.8359C1858.85 3.73561 1741.41 3.73568 1668.98 76.836C1596.55 149.936 1596.55 268.455 1668.98 341.555C1741.41 414.656 1858.85 414.656 1931.28 341.556Z" fill="url(#paint28_radial_2_837)"/>
<path style="mix-blend-mode:screen" d="M1931.28 341.556C2003.71 268.455 2003.71 149.936 1931.28 76.8359C1858.85 3.73561 1741.41 3.73568 1668.98 76.836C1596.55 149.936 1596.55 268.455 1668.98 341.555C1741.41 414.656 1858.85 414.656 1931.28 341.556Z" fill="url(#paint29_radial_2_837)"/>
<path style="mix-blend-mode:screen" d="M1800.14 231.836C1919.46 231.836 2016.19 221.702 2016.19 209.201C2016.19 196.701 1919.46 186.567 1800.14 186.567C1680.81 186.567 1584.08 196.701 1584.08 209.201C1584.08 221.702 1680.81 231.836 1800.14 231.836Z" fill="url(#paint30_radial_2_837)"/>
<path style="mix-blend-mode:screen" d="M1800.12 427.253C1812.51 427.253 1822.55 329.628 1822.55 209.201C1822.55 88.7742 1812.51 -8.85095 1800.12 -8.85095C1787.74 -8.85095 1777.7 88.7742 1777.7 209.201C1777.7 329.628 1787.74 427.253 1800.12 427.253Z" fill="url(#paint31_radial_2_837)"/>
<path style="mix-blend-mode:screen" d="M58.6813 1385.08C146.403 1385.08 217.516 1313.31 217.516 1224.78C217.516 1136.24 146.403 1064.47 58.6813 1064.47C-29.0407 1064.47 -100.153 1136.24 -100.153 1224.78C-100.153 1313.31 -29.0407 1385.08 58.6813 1385.08Z" fill="url(#paint32_radial_2_837)"/>
<path style="mix-blend-mode:screen" opacity="0.57" d="M58.6889 1410.93C86.2313 1410.93 108.559 1327.59 108.559 1224.78C108.559 1121.97 86.2313 1038.63 58.6889 1038.63C31.1465 1038.63 8.81897 1121.97 8.81897 1224.78C8.81897 1327.59 31.1465 1410.93 58.6889 1410.93Z" fill="url(#paint33_radial_2_837)"/>
<path style="mix-blend-mode:screen" d="M58.687 1272.55C197.69 1272.55 310.374 1251.16 310.374 1224.78C310.374 1198.4 197.69 1177.01 58.687 1177.01C-80.3159 1177.01 -193 1198.4 -193 1224.78C-193 1251.16 -80.3159 1272.55 58.687 1272.55Z" fill="url(#paint34_radial_2_837)"/>
<path style="mix-blend-mode:screen" d="M293.492 1461.76C301.833 1453.34 203.47 1340.42 73.791 1209.54C-55.888 1078.67 -167.776 979.395 -176.117 987.814C-184.459 996.232 -86.0951 1109.15 43.584 1240.03C173.263 1370.91 285.151 1470.18 293.492 1461.76Z" fill="url(#paint35_radial_2_837)"/>
</g>
<defs>
<filter id="filter0_d_2_837" x="-158.757" y="-151.088" width="2755.92" height="2779" filterUnits="userSpaceOnUse" color-interpolation-filters="sRGB">
<feFlood flood-opacity="0" result="BackgroundImageFix"/>
<feColorMatrix in="SourceAlpha" type="matrix" values="0 0 0 0 0 0 0 0 0 0 0 0 0 0 0 0 0 0 127 0" result="hardAlpha"/>
<feOffset dy="13.7612"/>
<feGaussianBlur stdDeviation="61.9255"/>
<feComposite in2="hardAlpha" operator="out"/>
<feColorMatrix type="matrix" values="0 0 0 0 0 0 0 0 0 0 0 0 0 0 0 0 0 0 0.25 0"/>
<feBlend mode="normal" in2="BackgroundImageFix" result="effect1_dropShadow_2_837"/>
<feBlend mode="normal" in="SourceGraphic" in2="effect1_dropShadow_2_837" result="shape"/>
</filter>
<radialGradient id="paint0_radial_2_837" cx="0" cy="0" r="1" gradientUnits="userSpaceOnUse" gradientTransform="translate(1219.17 1224.65) scale(1095.19 1105.3)">
<stop stop-color="white"/>
<stop offset="0.63" stop-color="white"/>
<stop offset="0.73" stop-color="white"/>
<stop offset="0.83" stop-color="#FDFDFD"/>
<stop offset="0.87" stop-color="#F6F6F6"/>
<stop offset="0.89" stop-color="#EBEBEB"/>
<stop offset="0.91" stop-color="#DADADA"/>
<stop offset="0.93" stop-color="#C4C4C4"/>
<stop offset="0.95" stop-color="#A8A8A8"/>
<stop offset="0.96" stop-color="#888888"/>
<stop offset="0.97" stop-color="#626262"/>
<stop offset="0.99" stop-color="#373737"/>
<stop offset="1"/>
</radialGradient>
<radialGradient id="paint1_radial_2_837" cx="0" cy="0" r="1" gradientUnits="userSpaceOnUse" gradientTransform="translate(1219.06 51.7208) scale(75.9813 76.6829)">
<stop stop-color="#FCEE21"/>
<stop offset="1"/>
</radialGradient>
<radialGradient id="paint2_radial_2_837" cx="0" cy="0" r="1" gradientUnits="userSpaceOnUse" gradientTransform="translate(1799.77 208.671) scale(75.9812 76.6829)">
<stop stop-color="#FCEE21"/>
<stop offset="1"/>
</radialGradient>
<radialGradient id="paint3_radial_2_837" cx="0" cy="0" r="1" gradientUnits="userSpaceOnUse" gradientTransform="translate(2224.8 637.634) scale(75.9813 76.6829)">
<stop stop-color="#FCEE21"/>
<stop offset="1"/>
</radialGradient>
<radialGradient id="paint4_radial_2_837" cx="0" cy="0" r="1" gradientUnits="userSpaceOnUse" gradientTransform="translate(2380.37 1223.59) scale(75.9812 76.6829)">
<stop stop-color="#FCEE21"/>
<stop offset="1"/>
</radialGradient>
<radialGradient id="paint5_radial_2_837" cx="0" cy="0" r="1" gradientUnits="userSpaceOnUse" gradientTransform="translate(2224.8 1809.56) scale(75.9813 76.6829)">
<stop stop-color="#FCEE21"/>
<stop offset="1"/>
</radialGradient>
<radialGradient id="paint6_radial_2_837" cx="0" cy="0" r="1" gradientUnits="userSpaceOnUse" gradientTransform="translate(1799.77 2238.51) scale(75.9812 76.6829)">
<stop stop-color="#FCEE21"/>
<stop offset="1"/>
</radialGradient>
<radialGradient id="paint7_radial_2_837" cx="0" cy="0" r="1" gradientUnits="userSpaceOnUse" gradientTransform="translate(1219.17 2395.52) scale(75.9813 76.6829)">
<stop stop-color="#FCEE21"/>
<stop offset="1"/>
</radialGradient>
<radialGradient id="paint8_radial_2_837" cx="0" cy="0" r="1" gradientUnits="userSpaceOnUse" gradientTransform="translate(638.573 2238.51) scale(75.9812 76.6829)">
<stop stop-color="#FCEE21"/>
<stop offset="1"/>
</radialGradient>
<radialGradient id="paint9_radial_2_837" cx="0" cy="0" r="1" gradientUnits="userSpaceOnUse" gradientTransform="translate(213.549 1809.56) scale(75.9812 76.6829)">
<stop stop-color="#FCEE21"/>
<stop offset="1"/>
</radialGradient>
<radialGradient id="paint10_radial_2_837" cx="0" cy="0" r="1" gradientUnits="userSpaceOnUse" gradientTransform="translate(57.9631 1223.59) scale(75.9812 76.6829)">
<stop stop-color="#FCEE21"/>
<stop offset="1"/>
</radialGradient>
<radialGradient id="paint11_radial_2_837" cx="0" cy="0" r="1" gradientUnits="userSpaceOnUse" gradientTransform="translate(213.551 637.634) scale(75.9812 76.6829)">
<stop stop-color="#FCEE21"/>
<stop offset="1"/>
</radialGradient>
<radialGradient id="paint12_radial_2_837" cx="0" cy="0" r="1" gradientUnits="userSpaceOnUse" gradientTransform="translate(638.573 208.671) scale(75.9812 76.6829)">
<stop stop-color="#FCEE21"/>
<stop offset="1"/>
</radialGradient>
<radialGradient id="paint13_radial_2_837" cx="0" cy="0" r="1" gradientUnits="userSpaceOnUse" gradientTransform="translate(1219.33 2399.17) scale(139.023 140.307)">
<stop stop-color="#29ABE2"/>
<stop offset="0.49" stop-color="#155976"/>
<stop offset="1"/>
</radialGradient>
<radialGradient id="paint14_radial_2_837" cx="0" cy="0" r="1" gradientUnits="userSpaceOnUse" gradientTransform="translate(1267.11 2392.21) scale(43.3085 162.541)">
<stop stop-color="#BFEAFF"/>
<stop offset="0.43" stop-color="#6E8793"/>
<stop offset="1"/>
</radialGradient>
<radialGradient id="paint15_radial_2_837" cx="0" cy="0" r="1" gradientUnits="userSpaceOnUse" gradientTransform="translate(1224.52 2496.8) rotate(-90) scale(42.3426 220.603)">
<stop stop-color="#BFEAFF"/>
<stop offset="0.43" stop-color="#6E8793"/>
<stop offset="1"/>
</radialGradient>
<radialGradient id="paint16_radial_2_837" cx="0" cy="0" r="1" gradientTransform="matrix(-13.3948 13.5185 -205.706 -207.606 1205.55 2411.15)" gradientUnits="userSpaceOnUse">
<stop stop-color="#B274AA"/>
<stop offset="0.61" stop-color="#482F44"/>
<stop offset="1"/>
</radialGradient>
<radialGradient id="paint17_radial_2_837" cx="0" cy="0" r="1" gradientUnits="userSpaceOnUse" gradientTransform="translate(1220.28 52.4636) scale(117.88 118.969)">
<stop stop-color="#29ABE2"/>
<stop offset="0.49" stop-color="#155976"/>
<stop offset="1"/>
</radialGradient>
<radialGradient id="paint18_radial_2_837" cx="0" cy="0" r="1" gradientTransform="matrix(-25.1543 -25.3866 132.263 -133.484 1273.47 96.8128)" gradientUnits="userSpaceOnUse">
<stop stop-color="#BFEAFF"/>
<stop offset="0.43" stop-color="#6E8793"/>
<stop offset="1"/>
</radialGradient>
<radialGradient id="paint19_radial_2_837" cx="0" cy="0" r="1" gradientTransform="matrix(-25.151 25.3832 -174.434 -176.045 1218.22 50.2066)" gradientUnits="userSpaceOnUse">
<stop stop-color="#B274AA"/>
<stop offset="0.61" stop-color="#482F44"/>
<stop offset="1"/>
</radialGradient>
<radialGradient id="paint20_radial_2_837" cx="0" cy="0" r="1" gradientTransform="matrix(96.0823 96.9696 -96.0823 96.9696 2379.78 1222.81)" gradientUnits="userSpaceOnUse">
<stop stop-color="#29ABE2"/>
<stop offset="0.49" stop-color="#155976"/>
<stop offset="1"/>
</radialGradient>
<radialGradient id="paint21_radial_2_837" cx="0" cy="0" r="1" gradientUnits="userSpaceOnUse" gradientTransform="translate(2386.5 1291.16) rotate(-90) scale(41.3837 215.608)">
<stop stop-color="#BFEAFF"/>
<stop offset="0.43" stop-color="#6E8793"/>
<stop offset="1"/>
</radialGradient>
<radialGradient id="paint22_radial_2_837" cx="0" cy="0" r="1" gradientTransform="matrix(-14.0298 -14.1594 152.458 -153.865 2428.59 1262.81)" gradientUnits="userSpaceOnUse">
<stop stop-color="#BFEAFF"/>
<stop offset="0.43" stop-color="#6E8793"/>
<stop offset="1"/>
</radialGradient>
<radialGradient id="paint23_radial_2_837" cx="0" cy="0" r="1" gradientUnits="userSpaceOnUse" gradientTransform="translate(2383.07 1219.65) rotate(180) scale(41.0051 287.016)">
<stop stop-color="#B274AA"/>
<stop offset="0.61" stop-color="#482F44"/>
<stop offset="1"/>
</radialGradient>
<radialGradient id="paint24_radial_2_837" cx="0" cy="0" r="1" gradientTransform="matrix(96.0823 96.9696 -96.0823 96.9696 213.519 637.638)" gradientUnits="userSpaceOnUse">
<stop stop-color="#29ABE2"/>
<stop offset="0.49" stop-color="#155976"/>
<stop offset="1"/>
</radialGradient>
<radialGradient id="paint25_radial_2_837" cx="0" cy="0" r="1" gradientUnits="userSpaceOnUse" gradientTransform="translate(217.346 698.527) rotate(-90) scale(41.3838 215.608)">
<stop stop-color="#BFEAFF"/>
<stop offset="0.43" stop-color="#6E8793"/>
<stop offset="1"/>
</radialGradient>
<radialGradient id="paint26_radial_2_837" cx="0" cy="0" r="1" gradientTransform="matrix(-14.0298 -14.1594 152.458 -153.865 239.354 656.606)" gradientUnits="userSpaceOnUse">
<stop stop-color="#BFEAFF"/>
<stop offset="0.43" stop-color="#6E8793"/>
<stop offset="1"/>
</radialGradient>
<radialGradient id="paint27_radial_2_837" cx="0" cy="0" r="1" gradientUnits="userSpaceOnUse" gradientTransform="translate(188.53 633.867) rotate(180) scale(41.0051 287.016)">
<stop stop-color="#B274AA"/>
<stop offset="0.61" stop-color="#482F44"/>
<stop offset="1"/>
</radialGradient>
<radialGradient id="paint28_radial_2_837" cx="0" cy="0" r="1" gradientUnits="userSpaceOnUse" gradientTransform="translate(1800.13 209.213) rotate(-90) scale(182.171 180.504)">
<stop stop-color="#29ABE2"/>
<stop offset="0.49" stop-color="#155976"/>
<stop offset="1"/>
</radialGradient>
<radialGradient id="paint29_radial_2_837" cx="0" cy="0" r="1" gradientUnits="userSpaceOnUse" gradientTransform="translate(1800.13 209.213) rotate(-90) scale(182.171 180.504)">
<stop stop-color="#29ABE2"/>
<stop offset="0.49" stop-color="#155976"/>
<stop offset="1"/>
</radialGradient>
<radialGradient id="paint30_radial_2_837" cx="0" cy="0" r="1" gradientUnits="userSpaceOnUse" gradientTransform="translate(1813.53 173.398) rotate(-90) scale(21.435 210.972)">
<stop stop-color="#BFFFC4"/>
<stop offset="0.43" stop-color="#6E9370"/>
<stop offset="1"/>
</radialGradient>
<radialGradient id="paint31_radial_2_837" cx="0" cy="0" r="1" gradientUnits="userSpaceOnUse" gradientTransform="translate(1699.31 200.871) rotate(180) scale(21.2411 212.944)">
<stop stop-color="#BFEAFF"/>
<stop offset="0.43" stop-color="#6E8793"/>
<stop offset="1"/>
</radialGradient>
<radialGradient id="paint32_radial_2_837" cx="0" cy="0" r="1" gradientUnits="userSpaceOnUse" gradientTransform="translate(58.6813 1224.78) scale(154.578 156.006)">
<stop stop-color="#29ABE2"/>
<stop offset="0.49" stop-color="#155976"/>
<stop offset="1"/>
</radialGradient>
<radialGradient id="paint33_radial_2_837" cx="0" cy="0" r="1" gradientUnits="userSpaceOnUse" gradientTransform="translate(115.828 1220.67) scale(48.1525 180.721)">
<stop stop-color="#BFEAFF"/>
<stop offset="0.43" stop-color="#6E8793"/>
<stop offset="1"/>
</radialGradient>
<radialGradient id="paint34_radial_2_837" cx="0" cy="0" r="1" gradientUnits="userSpaceOnUse" gradientTransform="translate(62.3179 1307.45) rotate(-90) scale(47.0785 245.277)">
<stop stop-color="#BFEAFF"/>
<stop offset="0.43" stop-color="#6E8793"/>
<stop offset="1"/>
</radialGradient>
<radialGradient id="paint35_radial_2_837" cx="0" cy="0" r="1" gradientTransform="matrix(-14.8934 15.0309 -228.719 -230.832 43.7394 1235.55)" gradientUnits="userSpaceOnUse">
<stop stop-color="#B274AA"/>
<stop offset="0.61" stop-color="#482F44"/>
<stop offset="1"/>
</radialGradient>
<clipPath id="clip0_2_837">
<rect width="2444" height="2449" rx="1222" fill="white"/>
</clipPath>
</defs>
</svg>
